<?xml version="1.0" standalone="no"?>
<!DOCTYPE svg PUBLIC "-//W3C//DTD SVG 1.1//EN" "http://www.w3.org/Graphics/SVG/1.1/DTD/svg11.dtd" >
<svg xmlns="http://www.w3.org/2000/svg">
<metadata>Generated by IcoMoon</metadata>
<defs>
<font id="icomoon" horiz-adv-x="1024">
<font-face units-per-em="1024" ascent="960" descent="-64" />
<missing-glyph horiz-adv-x="1024" />
<glyph unicode="&#x20;" horiz-adv-x="512" d="" />
<glyph unicode="&#x2d;" glyph-name="quote" d="M682 896h-340c-94 0-172-76-172-170v-832c0-10 6-18 14-20 8-4 16-2 24 4l198 198 198-198c4-4 10-6 14-6s6 0 8 2c8 2 14 10 14 20v704h192c12 0 22 8 22 20v108c0 94-78 170-172 170zM810 640h-170v64c0 36 28 64 64 64 12 0 22 10 22 22s-10 20-22 20c-58 0-106-48-106-106v-760l-178 178c-4 4-10 6-14 6-6 0-12-2-16-6l-176-178v782c0 70 56 128 128 128h340c72 0 128-58 128-128z" />
<glyph unicode="&#x2e;" glyph-name="diploma" d="M1002 854h-490v20c0 12-10 22-22 22h-340c-12 0-22-10-22-22v-20h-106c-12 0-22-10-22-22v-938c0-12 10-22 22-22h980c12 0 22 10 22 22v938c0 12-10 22-22 22zM170 854h300v-482l-134 134c-6 4-10 6-16 6s-10-2-16-6l-134-134zM982-86h-940v896h86v-490c0-8 6-16 14-20s16-2 22 4l156 156 156-156c4-4 10-6 14-6s6 2 8 2c8 4 14 12 14 20v490h470zM618 554h256c12 0 22 10 22 22s-10 22-22 22h-256c-12 0-20-10-20-22s8-22 20-22zM618 426h256c12 0 22 10 22 22s-10 22-22 22h-256c-12 0-20-10-20-22s8-22 20-22zM874 342h-256c-12 0-20-10-20-22s8-22 20-22h256c12 0 22 10 22 22s-10 22-22 22zM874 214h-724c-12 0-22-10-22-22s10-22 22-22h724c12 0 22 10 22 22s-10 22-22 22zM704 86h-554c-12 0-22-10-22-22s10-22 22-22h554c12 0 22 10 22 22s-10 22-22 22z" />
<glyph unicode="&#x32;" glyph-name="zoomin-filled" d="M362 170c86 0 164 30 224 78l366-364c8-8 18-12 30-12 10 0 22 4 30 12 16 18 16 44 0 60l-364 366c48 60 78 138 78 224 0 200-164 362-364 362s-362-162-362-362c0-200 162-364 362-364zM214 554h128v128c0 12 8 22 20 22s22-10 22-22v-128h128c12 0 22-8 22-20s-10-22-22-22h-128v-128c0-12-10-22-22-22s-20 10-20 22v128h-128c-12 0-22 10-22 22s10 20 22 20z" />
<glyph unicode="&#x33;" glyph-name="zoomout-filled" d="M362 170c86 0 164 30 226 80l364-366c8-8 18-12 30-12 10 0 22 4 30 12 16 18 16 44 0 60l-364 366c48 62 78 140 78 224 0 200-164 362-364 362s-362-162-362-362c0-200 162-364 362-364zM214 554h298c12 0 22-8 22-20s-10-22-22-22h-298c-12 0-22 10-22 22s10 20 22 20z" />
<glyph unicode="&#x34;" glyph-name="zoomin" d="M1018-92l-384 384c0 0 0 0 0 0 56 64 92 148 92 242 0 200-164 362-364 362s-362-162-362-362c0-200 162-364 362-364 94 0 178 36 242 92 0 0 0 0 0 0l384-384c4-4 10-6 14-6 6 0 12 2 16 6 8 8 8 22 0 30zM362 214c-176 0-320 142-320 320 0 176 144 320 320 320 178 0 320-144 320-320 0-178-142-320-320-320zM512 554h-128v128c0 12-10 22-22 22s-20-10-20-22v-128h-128c-12 0-22-8-22-20s10-22 22-22h128v-128c0-12 8-22 20-22s22 10 22 22v128h128c12 0 22 10 22 22s-10 20-22 20z" />
<glyph unicode="&#x35;" glyph-name="zoomout" d="M1018-92l-384 384c0 0 0 0 0 0 56 64 92 148 92 242 0 200-164 362-364 362s-362-162-362-362c0-200 162-364 362-364 94 0 178 36 242 92 0 0 0 0 0 0l384-384c4-4 10-6 14-6 6 0 12 2 16 6 8 8 8 22 0 30zM362 214c-176 0-320 142-320 320 0 176 144 320 320 320 178 0 320-144 320-320 0-178-142-320-320-320zM512 554h-298c-12 0-22-8-22-20s10-22 22-22h298c12 0 22 10 22 22s-10 20-22 20z" />
<glyph unicode="&#x46;" glyph-name="loupe" d="M1018-92l-384 384c0 0 0 0 0 0 56 64 92 148 92 242 0 200-164 362-364 362s-362-162-362-362c0-200 162-364 362-364 94 0 178 36 242 92 0 0 0 0 0 0l384-384c4-4 10-6 14-6 6 0 12 2 16 6 8 8 8 22 0 30zM362 214c-176 0-320 142-320 320 0 176 144 320 320 320 178 0 320-144 320-320 0-178-142-320-320-320z" />
<glyph unicode="&#x47;" glyph-name="loupe-filled" d="M384 128c90 0 174 32 240 84l328-328c8-8 18-12 30-12 10 0 22 4 30 12 16 18 16 44 0 60l-328 330c52 66 84 148 84 238 0 212-172 384-384 384s-384-172-384-384c0-212 172-384 384-384zM384 810c164 0 298-134 298-298s-134-298-298-298c-164 0-298 134-298 298s134 298 298 298z" />
<glyph unicode="&#x5e;" glyph-name="screen" d="M982 252v494c0 12-10 22-22 22h-320v22c0 12-10 20-22 20h-84v64c0 12-10 22-22 22s-22-10-22-22v-64h-84c-12 0-22-8-22-20v-22h-320c-12 0-22-10-22-22v-494c-24-8-42-32-42-60 0-36 28-64 64-64h200l-112-226c-6-10-2-22 10-28 2-2 6-2 8-2 8 0 16 4 20 12l122 244h178v-234c0-12 10-22 22-22s22 10 22 22v234h178l122-244c4-8 12-12 20-12 2 0 6 0 8 2 12 6 16 18 10 28l-112 226h200c36 0 64 28 64 64 0 28-18 52-42 60zM426 768h172v-42h-172zM86 726h298v-22c0-12 10-22 22-22h212c12 0 22 10 22 22v22h298v-470h-852zM960 170h-896c-12 0-22 10-22 22s10 22 22 22h896c12 0 22-10 22-22s-10-22-22-22z" />
<glyph unicode="&#x63;" glyph-name="binoculars" d="M980 244l-128 298c-2 2-2 4-4 6l-62 62-62 162c-2 4-2 6-4 8-42 42-118 42-160 0-4-4-6-10-6-14v-168c0-12 10-22 22-22s22 10 22 22v158c24 18 66 16 88-2l62-164c2-4 2-6 4-8l62-60 90-210c-34 18-74 30-114 30-80 0-150-40-192-100v236c38-12 64-32 64-52 0-12 8-20 20-20s22 8 22 20c0 62-82 108-192 108s-192-46-192-108c0-12 10-20 22-20s20 8 20 20c0 20 26 40 64 52v-236c-42 60-112 100-192 100-40 0-80-12-114-30l90 210 62 60c2 2 2 4 4 8l62 166c22 18 64 20 88 2v-160c0-12 10-22 22-22s22 10 22 22v170c0 6-2 12-6 16-42 40-118 40-160 0-2-4-2-6-4-8l-62-166-62-62c0-2-2-4-4-6l-128-298c-28-38-44-86-44-138 0-128 106-234 234-234 130 0 236 106 236 234v382c12 2 28 2 42 2s30 0 42-2v-382c0-128 106-234 236-234 128 0 234 106 234 234 0 52-16 100-44 138zM234-86c-106 0-192 86-192 192s86 192 192 192c106 0 192-86 192-192s-86-192-192-192zM790-86c-106 0-192 86-192 192s86 192 192 192c106 0 192-86 192-192s-86-192-192-192zM234 256c-82 0-148-66-148-150 0-12 8-20 20-20s22 8 22 20c0 60 48 108 106 108 12 0 22 8 22 20s-10 22-22 22zM790 256c-82 0-150-66-150-150 0-12 10-20 22-20s20 8 20 20c0 60 48 108 108 108 12 0 20 8 20 20s-8 22-20 22z" />
<glyph unicode="&#x64;" glyph-name="nuclear" d="M970 648c-24 12-50 16-76 10-6 26-22 48-48 66-32 24-72 36-114 36-48 70-130 114-220 114s-172-42-218-114c-34 0-66-8-94-22-30-16-52-36-62-60-28 8-58 6-84-10-34-18-54-54-54-92 0-40 20-76 56-94 28-14 60-16 88-6 16-26 42-44 78-56 28-10 58-14 88-14 34 0 66 4 90 16 24-26 26-44 26-102-16 0-34-4-50-12-36-20-56-54-56-94s20-74 54-94c16-8 34-14 52-14-10-86-80-100-184-114-74-8-156-18-156-98 0-12 8-22 20-22h812c12 0 20 10 20 22 0 80-82 90-156 98-104 14-174 28-184 114 18 0 36 6 52 14 34 20 54 54 54 94s-20 74-56 94c-16 8-34 12-50 12 0 58 2 76 26 102 24-10 58-16 92-16 22 0 44 2 64 6 36 10 68 26 88 48 28-16 64-16 94-2 38 18 62 54 62 96 0 40-20 74-54 94zM662 214c0-24-12-44-34-56-20-12-44-12-64 0-10 6-22 4-28-6s-4-24 6-30c4-2 8-4 14-6 6-140 130-154 220-166 66-8 102-14 114-36h-756c12 22 48 28 114 36 90 12 214 26 220 166 6 2 10 4 14 6 10 6 12 20 6 30s-18 12-28 6c-20-12-44-12-64 0-22 12-34 32-34 56s14 44 34 56c22 10 46 10 66-4 10-6 24-4 30 6s4 24-6 30c-6 4-12 6-16 8 0 46-2 74-12 100 18-4 36-6 54-6s36 2 54 6c-10-26-12-54-12-100-4-2-10-4-16-8-10-6-12-20-6-30s20-12 30-6c20 14 44 14 66 4 20-12 34-32 34-56zM944 496c-22-10-48-6-68 10-4 4-10 6-16 4-6 0-12-4-16-10-16-28-50-40-74-46-54-12-114-4-140 12 0 0-2 0-2 0 0 2-2 2-2 2s-2 0-2 0-2 0-4 2c0 0-2 0-2 0s-2-2-2-2c-2 0-2 0-4 0 0 0-2 0-2 0s0 0 0 0c-52-26-144-26-196 0 0 0 0 0 0 0s-2 0-2 0-2 0-4 0c0 2-2 2-2 2s-2 0-2 0c-2-2-2-2-4-2 0 0-2 0-2 0s-2 0-2-2c0 0-2 0-2 0-30-18-102-26-158-6-22 8-52 22-62 52-2 6-8 12-14 14s-12 0-18-4c-20-12-44-14-66-2-20 12-34 32-34 56s12 44 34 56c20 12 44 10 64-2 0 0 0 0 0 0 14-8 24-22 28-36 2-10 12-16 20-16 2 0 4 0 6 0 12 4 18 16 14 26-4 22-16 40-32 54 6 16 22 30 42 42 48 24 110 24 156 2 12-6 24-2 30 10 4 10 0 22-10 28-16 8-34 14-50 16 40 48 100 76 168 76s130-28 170-76c-18-4-36-8-52-16-10-6-14-18-10-28 6-12 18-16 28-10 62 28 134 16 174-12 14-10 30-28 32-50-14-10-24-22-30-36-6-10-2-24 8-28 4-2 6-4 10-4 8 0 16 4 18 12 6 10 14 20 24 26 0 0 0 0 0 0 22 12 44 12 64 0 22-12 34-32 34-56s-14-46-38-58z" />
<glyph unicode="&#x65;" glyph-name="binoculars-filled" d="M704 448c0-12-10-22-22-22s-20 10-20 22c0 24-44 52-108 62v-382c0-130 106-234 236-234 128 0 234 104 234 234 0 52-16 98-44 138l-128 298c-2 2-4 4-4 6l-62 60-62 164c-2 4-2 6-4 8-42 40-118 40-160 0-4-4-6-10-6-16v-234c88-10 150-52 150-104zM790-64c-106 0-192 86-192 192s86 192 192 192c106 0 192-86 192-192s-86-192-192-192zM0 128c0-130 106-234 234-234 130 0 236 104 236 234v382c-64-10-108-38-108-62 0-12-8-22-20-22s-22 10-22 22c0 52 62 94 150 104v238c0 4-2 10-6 14-42 42-118 42-160 0-2-2-2-4-4-8l-62-166-62-60c-2-2-2-4-4-6l-128-298c-28-40-44-86-44-138zM234-64c-106 0-192 86-192 192s86 192 192 192c106 0 192-86 192-192s-86-192-192-192zM234 234c12 0 22 10 22 22s-10 22-22 22c-82 0-148-68-148-150 0-12 8-22 20-22s22 10 22 22c0 58 48 106 106 106zM790 234c12 0 20 10 20 22s-8 22-20 22c-84 0-150-68-150-150 0-12 10-22 22-22s20 10 20 22c0 58 48 106 108 106z" />
<glyph unicode="&#x66;" glyph-name="nuclear-filled" d="M392 784c10-4 16-16 12-28-4-10-18-16-28-10-52 20-118 18-164-6-12-8-28-20-36-36 56-28 76-78 76-104 0-12-10-22-22-22s-20 10-20 22c0 0-8 74-112 80-20 0-46-10-64-28-22-22-34-48-34-76 0 0 0 0 0-2 0-38 22-74 56-92 28-14 60-16 88-6 16-26 42-44 78-56 58-20 132-18 178 2 24-26 26-44 26-102-16 0-34-4-50-12-34-20-56-54-56-94s20-74 54-94c16-8 34-14 52-14-10-86-80-100-184-114-74-8-156-18-156-98 0-12 8-22 20-22h812c12 0 20 10 20 22 0 80-82 90-156 98-104 14-174 28-184 114 18 0 36 6 52 14 34 20 54 54 54 94s-20 74-56 94c-16 8-34 12-50 12 0 58 2 76 26 102 40-18 102-22 156-10 36 10 68 26 88 48 28-16 64-16 94-2 38 18 62 54 62 96 0 18-4 34-12 48-2 4-2 6-4 10-2 0-2 2-2 2-4 6-8 12-14 16-4 4-10 8-14 12 0 0 0 0 0 0-6 4-10 6-14 8-2 2-4 2-6 2-10 4-20 8-32 8-104-8-110-82-110-82 0-12-10-22-20-22-12 0-22 10-22 22 0 28 22 82 82 108 0 0-2 2-2 4-4 24-24 40-40 50-46 24-112 26-164 6-12-6-24 0-28 10-4 12 0 24 12 28 20 8 42 14 64 16-48 46-114 74-186 74s-138-26-186-74c22-2 46-6 66-16z" />
<glyph unicode="&#xe01d;" glyph-name="medal-star" d="M810 242c-4 8-12 14-20 14h-198l-60 218c-2 10-10 16-20 16s-18-6-20-16l-60-218h-198c-8 0-16-6-20-14-2-10 0-18 8-24l158-118-80-198c-4-10 0-20 8-26 6-6 18-6 26 0l178 140 178-140c4-2 10-4 14-4s10 2 12 4c8 6 12 16 8 26l-80 198 158 118c8 6 10 14 8 24zM606 124c-8-6-10-16-8-26l56-140-128 102c-4 2-10 4-14 4s-10-2-14-4l-128-102 56 140c2 10 0 20-8 26l-120 90h150c10 0 18 6 20 16l44 158 44-158c2-10 10-16 20-16h150zM366 364c12 2 20 12 18 24l-80 422h122v-256c0-12 10-20 22-20s22 8 22 20v256h84v-256c0-12 10-20 22-20s22 8 22 20v256h122l-80-422c-2-12 6-22 18-24 0-2 2-2 4-2 10 0 18 8 20 18l86 448c0 6 0 12-4 18-4 4-10 8-18 8h-468c-8 0-14-4-18-8-4-6-4-12-4-18l86-448c2-12 14-20 24-16z" />
<glyph unicode="&#xe01e;" glyph-name="ribbon-star" d="M864 530c28 30 40 72 26 112s-48 70-88 78c4 40-14 82-48 106s-80 28-118 10c-20 36-60 60-102 60-44 0-82-24-102-60-38 18-84 14-120-10-34-24-52-66-46-106-42-8-76-38-90-78-12-40-2-82 26-112-28-30-38-74-26-114 14-40 48-70 90-78-6-40 12-82 46-106s82-28 120-10c20-36 58-60 102-60 42 0 80 24 102 60 38-18 84-14 118 10s52 66 48 106c40 8 74 38 88 78s2 84-26 114zM850 430c-10-30-38-50-70-50h-6c-6 0-12-4-16-10s-6-14-2-22c10-30 0-62-26-80-26-20-64-18-90 0l-2 2c-6 4-12 4-20 2-6-2-10-6-12-14l-2-2c-8-30-38-52-70-52-34 0-62 22-72 52v2c-2 8-8 12-14 14-2 2-4 2-6 2-6 0-10-2-14-4l-2-2c-24-18-62-20-88 0-26 18-38 50-26 82 2 8 2 14-2 20s-12 10-18 10h-2c0 0-2 0-2 0-32 0-62 20-72 50s2 62 30 80l2 2c6 4 8 10 8 18 0 6-2 12-8 16l-2 2c-28 18-40 50-30 82 10 28 40 48 74 48 0 0 0 0 0 0h2c8 0 12 4 18 10 4 6 4 14 2 22-12 30 0 62 26 82 26 18 64 18 88-2l2-2c6-4 14-4 20-2s12 6 14 14c0 0 0 2 0 2 10 30 38 52 72 52 32 0 62-22 70-52 0 0 2-2 2-2 2-6 6-12 12-14 8-2 14-2 20 2l2 2c26 20 64 20 90 2 26-20 36-52 26-82l-2-2c-2-8-2-14 4-20 4-6 10-10 18-10h4c32 0 60-20 70-48 10-32-2-64-28-82l-2-2c-6-4-10-10-10-16 0-8 4-14 10-18l2-2c26-18 38-50 28-80zM682-56l-134 136c-8 8-22 8-30 0l-134-136v226h-42v-276c0-10 4-18 12-20 8-4 18-2 24 4l156 156 154-156c4-4 10-6 16-6 2 0 6 0 8 2 8 2 14 10 14 20v276h-44zM726 618h-116l-58 116c-6 16-30 16-38 0l-58-116h-114c-10 0-18-6-20-14-4-8-2-18 6-24l96-76-40-136c-2-8 2-18 8-22 8-6 18-6 24-2l118 74 116-74c4-2 8-2 12-2s8 0 12 4 10 14 8 22l-38 136 94 76c8 6 10 16 8 24-4 8-12 14-20 14zM606 528c-8-4-10-14-8-22l28-96-82 50c-2 2-6 4-10 4s-8-2-12-4l-80-50 26 96c2 8 0 18-6 22l-60 48h68c8 0 14 4 18 12l46 90 44-90c4-8 12-12 20-12h66z" />
<glyph unicode="&#xe025;" glyph-name="crown" d="M1024 516c0 46-38 84-86 84-46 0-84-38-84-84 0-38 24-70 60-82-14-48-64-178-188-178-126 0-176 194-190 260 48 10 82 52 82 102 0 60-48 108-106 108s-106-48-106-108c0-50 34-92 82-102-14-66-64-260-190-260-128 0-176 136-188 182 34 10 60 42 60 82 0 46-38 84-84 84-48 0-86-38-86-84 0-42 28-74 66-84l84-462c2-10 10-16 20-16h684c10 0 18 6 20 16l84 458c38 10 66 42 66 84zM448 618c0 36 28 64 64 64s64-28 64-64c0-34-28-64-64-64s-64 30-64 64zM42 520c0 22 20 42 44 42 22 0 42-20 42-42 0-24-20-44-42-44-24 0-44 20-44 44zM836 0h-648l-54 296c36-46 90-82 164-82 124 0 186 132 214 224 28-92 90-224 214-224 74 0 128 36 164 82zM938 472c-22 0-42 20-42 44s20 42 42 42c24 0 44-18 44-42s-20-44-44-44zM854-86h-684c-12 0-20-8-20-20s8-22 20-22h684c12 0 20 10 20 22s-8 20-20 20z" />
<glyph unicode="&#xe027;" glyph-name="flag2-filled" d="M86 896c-24 0-44-20-44-42v-940c0-22 20-42 44-42 22 0 42 20 42 42v940c0 22-20 42-42 42zM930 776c-4 4-12 6-18 4-2 0-132-36-232-36 0 0 0 0 0 0-36 0-62 6-80 14-22 8-24 22-24 32 0 28-14 78-116 78-110 0-268-56-276-58-8-4-14-12-14-20v-512c0-8 4-14 10-18s12-6 20-2c0 0 158 54 260 54 74 0 74-26 74-34 0-40 26-88 148-88 106 0 236 34 240 36 10 2 16 10 16 20v514c0 6-2 12-8 16z" />
<glyph unicode="&#xe028;" glyph-name="flag2" d="M106 896c-12 0-20-10-20-22v-980c0-12 8-22 20-22s22 10 22 22v980c0 12-10 22-22 22zM930 776c-6 4-12 6-18 4-2 0-132-36-232-36-36 0-62 6-80 14-22 8-24 22-24 32 0 28-14 78-116 78-110 0-268-56-276-58-8-4-14-12-14-20v-512c0-8 4-14 10-18s12-6 20-2c0 0 158 54 260 54 74 0 74-26 74-34 0-40 26-88 148-88 106 0 236 34 240 36 10 2 16 10 16 20v514c0 6-2 12-8 16zM896 262c-38-8-134-30-214-30-48 0-106 8-106 46 0 28-14 78-116 78-82 0-194-32-246-50v468c40 14 162 50 246 50 74 0 74-26 74-34 0-24 8-54 48-72 24-10 56-16 98-16v0c78 0 172 20 216 30z" />
<glyph unicode="&#xe029;" glyph-name="flag1" d="M1014 338l-298 238 300 240c8 4 10 14 6 24-2 8-10 14-20 14h-768c-12 0-20-10-20-22v-512c0-12 8-22 20-22h768c0 0 0 0 2 0 10 0 20 10 20 22 0 8-4 14-10 18zM256 342v468h686l-272-218c-6-4-8-10-8-16s2-12 8-16l272-218zM150 896c-12 0-22-10-22-22v-980c0-12 10-22 22-22s20 10 20 22v980c0 12-8 22-20 22z" />
<glyph unicode="&#xe02a;" glyph-name="flag1-filled" d="M970 338l-296 238 300 240c6 4 10 14 6 24-2 8-10 14-20 14h-768c-12 0-22-10-22-22v-512c0-12 10-22 22-22h768c0 0 0 0 0 0 12 0 22 10 22 22 0 8-4 14-12 18zM86 896c-24 0-44-20-44-42v-940c0-22 20-42 44-42 22 0 42 20 42 42v940c0 22-20 42-42 42z" />
<glyph unicode="&#xe035;" glyph-name="heart" d="M742 848c-88 0-184-52-230-170-46 116-140 168-226 168-160 0-244-152-244-302 0-152 80-314 230-474 112-118 224-192 228-194s8-4 12-4c4 0 10 2 14 4 18 14 456 358 456 692 0 184-120 280-240 280zM512-80c-74 52-426 318-426 624 0 178 104 260 200 260 80 0 180-56 204-214 2-10 12-18 22-18s20 8 22 18c24 160 128 216 208 216 96 0 196-74 196-238 0-284-356-590-426-648z" />
<glyph unicode="&#xe036;" glyph-name="heart-filled" d="M742 870c-88 0-184-54-230-172-44 116-140 170-226 170-160 0-244-154-244-304s80-312 230-472c112-118 224-192 228-196 4-2 8-2 12-2s10 0 14 4c18 14 456 356 456 692 0 184-120 280-240 280z" />
<glyph unicode="&#xe037;" glyph-name="angel-heart" d="M856 446c-12 2-22-6-24-18s6-22 18-24c66-10 88-72 88-126v-300c0-64-32-64-42-64s-42 0-42 64v192c0 12-10 22-22 22s-22-10-22-22v-84c0-24-18-44-42-44s-42 20-42 44v42c0 12-10 22-22 22s-22-10-22-22v-42c0-48 38-86 86-86 16 0 30 4 42 12v-34c0-66 32-106 86-106s86 40 86 106v300c0 90-50 156-126 168zM320 150c-12 0-22-10-22-22v-42c0-24-18-44-42-44s-42 20-42 44v84c0 12-10 22-22 22s-22-10-22-22v-192c0-64-32-64-42-64s-42 0-42 64v300c0 54 22 116 88 126 12 2 20 12 18 24s-12 20-24 18c-76-12-126-78-126-168v-300c0-66 32-106 86-106s86 40 86 106v34c12-8 26-12 42-12 48 0 86 38 86 86v42c0 12-10 22-22 22zM512 662c96 0 256 18 256 84 0 68-160 86-256 86s-256-18-256-86c0-66 160-84 256-84zM512 790c128 0 208-30 214-42-6-16-86-44-214-44s-208 28-214 42c6 14 86 44 214 44zM640 582c-44 0-98-20-128-78-30 58-82 84-132 84-72 0-146-60-146-174 0-204 256-362 266-368 4-2 8-4 12-4s8 2 12 4c10 8 266 178 266 368 0 110-76 168-150 168zM512 90c-50 32-236 166-236 324 0 90 54 130 104 130 46 0 98-34 110-110 2-10 12-18 22-18s20 8 22 18c12 78 64 106 106 106 52 0 108-44 108-126 0-146-188-290-236-324z" />
<glyph unicode="&#xe038;" glyph-name="angel-heart-filled" d="M856 446c0 0-2 0-4 0h-22c2-10 2-20 2-32 0-112-76-216-150-290v-38c0-48 38-86 86-86v106c0 12 10 22 20 22 12 0 22-10 22-22v-128c0-66 32-106 86-106s84 40 84 106v300c0 90-48 156-124 168zM194 446h-24c0 0-2 0-2 0-76-12-126-78-126-168v-300c0-66 32-106 86-106s84 40 84 106v128c0 12 10 22 22 22s22-10 22-22v-106c46 0 84 38 84 86v32c-72 72-148 176-148 296 0 12 0 22 2 32zM512 662c94 0 256 18 256 84 0 68-162 86-256 86-96 0-256-18-256-86 0-66 160-84 256-84zM512 790c128 0 208-30 214-42-6-16-86-44-214-44-130 0-208 28-214 42 6 14 84 44 214 44zM638 582c-4 0-10 0-16 0 0 0-2-2-4-2-4 0-8 0-12-2-2 0-4 0-8-2-2 0-4-2-6-2-4-2-8-2-12-4 0 0-2-2-4-2-18-10-34-22-48-38 0 0 0 0 0 0-6-8-12-16-16-26-16 30-36 50-58 64-2 0-2 0-2 0-4 2-10 6-16 8 0 0 0 0-2 0-4 2-10 4-16 6 0 0 0 0-2 0-4 2-10 2-16 4 0 0 0 0-2 0-6 0-12 2-18 2-68 0-138-54-146-154 0-6 0-14 0-20 0-118 84-220 158-286 30-28 60-50 80-64 16-10 26-18 28-18v0c4-2 8-4 12-4s8 2 12 4c2 2 12 8 26 18 66 50 240 194 240 350 0 110-78 168-152 168z" />
<glyph unicode="&#xe03f;" glyph-name="star-filled" d="M1016 508c-4 8-12 14-20 14h-342l-120 344c-4 8-12 14-20 14-10 0-18-6-20-14l-122-344h-342c-8 0-16-6-20-14-2-8 0-18 8-24l282-220-122-364c-2-10 0-18 8-24s18-6 26 0l302 222 302-222c4-2 8-4 12-4s8 2 12 4c8 6 10 14 8 24l-122 364 282 220c8 6 10 16 8 24z" />
<glyph unicode="&#xe040;" glyph-name="star" d="M1022 518c-2 10-10 16-20 16h-346l-124 348c-2 8-10 14-20 14s-18-6-20-14l-124-348h-346c-10 0-18-6-20-16-4-8 0-18 6-22l288-226-124-370c-4-8 0-18 8-24 6-6 18-6 24 0l308 226 308-226c4-2 8-4 12-4s8 2 12 4c8 6 12 16 8 24l-124 370 288 226c8 4 10 14 6 22zM690 294c-6-6-10-14-6-24l106-320-266 196c-4 2-8 4-12 4s-8-2-12-4l-266-196 106 320c4 10 0 18-6 24l-250 196h300c10 0 18 6 20 14l108 306 108-306c2-8 10-14 20-14h300z" />
<glyph unicode="&#xe04a;" glyph-name="comment" d="M682 726h-340c-188 0-342-154-342-342s154-342 342-342h20v-148c0-10 6-18 14-20 2-2 6-2 8-2 6 0 12 2 16 6l164 164h118c188 0 342 154 342 342s-154 342-342 342zM682 86h-128c-6 0-10-2-14-6l-134-136v120c0 12-10 22-22 22h-42c-166 0-300 134-300 298s134 298 300 298h340c166 0 300-134 300-298s-134-298-300-298z" />
<glyph unicode="&#xe0bd;" glyph-name="download" d="M930 550c-2 2-4 2-6 4v0l-170 64-14-40 118-46-368-146-366 146 118 46-14 40-172-64c0-2-2-2-4-4-6-2-10-10-10-16v-428c0-8 6-14 12-18l428-214c2-2 6-2 8-2 4 0 8 0 10 2l426 214c8 4 12 10 12 18v428c0 6-2 14-8 16zM86 502l384-154v-420l-384 192zM896 120l-384-192v420l384 154zM476 518c2-2 4-4 6-4 4-2 6-2 8-2 4 0 6 0 8 2 4 0 6 2 8 4l170 170c8 10 8 22 0 32-8 8-22 8-30 0l-134-136v290c0 12-10 22-22 22s-20-10-20-22v-290l-134 136c-10 8-22 8-32 0-8-10-8-22 0-32z" />
<glyph unicode="&#xe0c6;" glyph-name="mail" d="M896 682h-768c-48 0-86-38-86-84v-470c0-48 38-86 86-86h768c48 0 86 38 86 86v470c0 46-38 84-86 84zM896 640c2 0 6 0 8 0l-392-314-392 314c2 0 6 0 8 0zM938 128c0-24-18-42-42-42h-768c-24 0-42 18-42 42v470c0 4 0 8 2 12l410-328c4-4 10-4 14-4s10 0 14 4l410 328c2-4 2-8 2-12z" />
<glyph unicode="&#xe0f6;" glyph-name="profile" d="M426 176v-32l-112-36 12-40 144 44v42c12-4 28-6 42-6s30 2 42 6v-42l144-44 12 40-112 36v32c38 30 64 78 64 132 0 90-68 162-150 162s-150-72-150-162c0-54 26-102 64-132zM512 426c48 0 88-34 102-82-8-2-16-4-26-2s-26 6-36 24c-4 6-8 10-16 10-6 2-12 0-18-6-32-30-78-34-106-22 14 46 54 78 100 78zM530 324c14-12 32-22 52-24 4 0 10-2 14-2 8 0 16 2 22 4-2-62-50-112-106-112-58 0-104 52-106 116 38-12 86-8 124 18zM874 726h-234v42c0 70-58 128-128 128s-128-58-128-128v-42h-234c-12 0-22-10-22-22v-810c0-12 10-22 22-22h724c12 0 22 10 22 22v810c0 12-10 22-22 22zM426 768c0 48 38 86 86 86s86-38 86-86v-192h-172zM406 534h212c12 0 22 8 22 20v44h128v-598h-512v598h128v-44c0-12 10-20 22-20zM854-86h-684v768h214v-42h-150c-12 0-20-10-20-22v-640c0-12 8-20 20-20h556c12 0 20 8 20 20v640c0 12-8 22-20 22h-150v42h214zM554 768c0-24-18-42-42-42s-42 18-42 42c0 24 18 42 42 42s42-18 42-42z" />
<glyph unicode="&#xe12f;" glyph-name="bag" d="M810 726v64c0 58-48 106-106 106h-128c-58 0-106-48-106-106v-64h-128v64c0 34 28 64 64 64h42c12 0 22 8 22 20s-10 22-22 22h-42c-60 0-108-48-108-106v-64h-298v-854h1024v854zM512 790c0 34 28 64 64 64h128c36 0 64-30 64-64v-64h-256zM42 682h108v-630l-58-58c-8-8-8-22 0-30s22-8 30 0l48 48 50-48c4-4 10-6 14-6 6 0 12 2 16 6 8 8 8 22 0 30l-58 58v630h106v-768h-256zM982-86h-640v768h640z" />
<glyph unicode="&#xe130;" glyph-name="bag-filled" d="M810 726v64c0 58-48 106-106 106h-128c-58 0-106-48-106-106v-64h-128v64c0 34 28 64 64 64h42c12 0 22 8 22 20s-10 22-22 22h-42c-60 0-108-48-108-106v-64h-298v-854h1024v854zM298-86h-256v768h108v-630l-58-58c-8-8-8-22 0-30s22-8 30 0l48 48 50-48c4-4 10-6 14-6 6 0 12 2 16 6 8 8 8 22 0 30l-58 58v630h106zM768 726h-256v64c0 34 28 64 64 64h128c36 0 64-30 64-64z" />
<glyph unicode="&#xe139;" glyph-name="cart" d="M432 560c2-2 6-2 8-4 2 0 6-2 8-2s6 2 8 2c2 2 6 2 8 4l128 128c8 10 8 22 0 32-10 8-22 8-32 0l-90-92v246c0 12-10 22-22 22s-22-10-22-22v-246l-90 92c-10 8-22 8-32 0-8-10-8-22 0-32zM1002 768h-148c-10 0-20-6-22-16l-56-240h-754c-8 0-14-4-18-8-4-6-6-14-2-20l128-384c2-8 10-14 20-14h526l-10-44h-452c-48 0-86-38-86-84 0-48 38-86 86-86 46 0 84 38 84 86 0 14-4 30-12 42h324c-8-12-12-28-12-42 0-48 38-86 84-86 48 0 86 38 86 86 0 38-26 70-60 80l162 688h132c12 0 22 8 22 20s-10 22-22 22zM164 128l-114 342h716l-80-342zM256-42c0-24-20-44-42-44-24 0-44 20-44 44 0 22 20 42 44 42 22 0 42-20 42-42zM726-42c0-24-20-44-44-44-22 0-42 20-42 44 0 22 20 42 42 42 24 0 44-20 44-42z" />
<glyph unicode="&#xe13a;" glyph-name="cart-filled" d="M432 560c2-2 6-2 8-4 2 0 6-2 8-2s6 2 8 2c2 2 6 2 8 4l128 128c8 10 8 22 0 32-10 8-22 8-32 0l-90-92v246c0 12-10 22-22 22s-22-10-22-22v-246l-90 92c-10 8-22 8-32 0-8-10-8-22 0-32zM1002 768h-148c-10 0-20-6-22-16l-56-240h-754c-8 0-14-4-18-8-4-6-6-14-2-20l128-384c2-8 10-14 20-14h526l-10-44h-452c-48 0-86-38-86-84 0-48 38-86 86-86 46 0 84 38 84 86 0 14-4 30-12 42h324c-8-12-12-28-12-42 0-48 38-86 84-86 48 0 86 38 86 86 0 38-26 70-60 80l162 688h132c12 0 22 8 22 20s-10 22-22 22z" />
<glyph unicode="&#xe143;" glyph-name="bill" d="M882 894c-8 4-16 2-22-4l-70-70-70 70c-10 8-22 8-32 0l-70-70-70 70c-8 8-22 8-30 0l-70-70-70 70c-8 8-22 8-30 0l-70-70-70 70c-8 6-16 8-24 4-8-2-14-10-14-20v-980c0-10 6-18 14-20 8-4 16-2 24 4l70 70 70-70c8-8 22-8 30 0l70 70 70-70c8-8 22-8 30 0l70 70 70-70c10-8 22-8 32 0l70 70 70-70c4-4 10-6 14-6s6 0 8 2c8 2 14 10 14 20v980c0 10-6 18-14 20zM854-56l-50 50c-8 8-22 8-30 0l-70-70-70 70c-4 4-10 6-16 6-4 0-10-2-14-6l-70-70-70 70c-10 8-22 8-32 0l-70-70-70 70c-8 8-22 8-30 0l-48-50v880l48-50c8-8 22-8 30 0l70 70 70-70c10-8 22-8 32 0l70 70 70-70c8-8 22-8 30 0l70 70 70-70c8-8 22-8 30 0l50 50zM682 618c0 12-8 22-20 22h-342c-12 0-22-10-22-22s10-20 22-20h342c12 0 20 8 20 20zM490 512h-170c-12 0-22-10-22-22s10-20 22-20h170c12 0 22 8 22 20s-10 22-22 22zM490 384h-170c-12 0-22-10-22-22s10-20 22-20h170c12 0 22 8 22 20s-10 22-22 22zM448 256h-128c-12 0-22-10-22-22s10-20 22-20h128c12 0 22 8 22 20s-10 22-22 22zM682 384c24 0 44-20 44-42 0-12 8-22 20-22s22 10 22 22c0 38-28 72-64 82v24c0 12-10 22-22 22s-20-10-20-22v-24c-38-10-64-44-64-82 0-48 38-86 84-86 24 0 44-20 44-42 0-24-20-44-44-44-22 0-42 20-42 44 0 12-10 20-22 20s-20-8-20-20c0-40 26-74 64-82v-26c0-12 8-20 20-20s22 8 22 20v26c36 8 64 42 64 82 0 46-38 84-86 84-22 0-42 20-42 44 0 22 20 42 42 42z" />
<glyph unicode="&#xe152;" glyph-name="photo-camera" d="M896 426h-76l-70 70 34 102h48c12 0 22 8 22 20v256c0 12-10 22-22 22h-470c-12 0-20-10-20-22v-256c0-12 8-20 20-20h50l32-102-68-70h-78v22c0 36-28 64-64 64h-42c-36 0-64-28-64-64v-22c-48 0-86-38-86-84v-384c0-48 38-86 86-86h768c48 0 86 38 86 86v384c0 46-38 84-86 84zM384 854h426v-214h-426zM738 598l-28-86h-226l-28 86zM170 448c0 12 10 22 22 22h42c12 0 22-10 22-22v-22h-86zM938-42c0-24-18-44-42-44h-768c-24 0-42 20-42 44v384c0 22 18 42 42 42h256c6 0 12 2 16 6l78 80h238l80-80c4-4 10-6 14-6h86c24 0 42-20 42-42zM214 342c-48 0-86-38-86-86s38-86 86-86c46 0 84 38 84 86s-38 86-84 86zM214 214c-24 0-44 18-44 42s20 42 44 42c22 0 42-18 42-42s-20-42-42-42zM618 298c-70 0-128-56-128-128 0-70 58-128 128-128 72 0 128 58 128 128 0 72-56 128-128 128zM618 86c-46 0-84 38-84 84 0 48 38 86 84 86 48 0 86-38 86-86 0-46-38-84-86-84zM618 384c-116 0-212-96-212-214 0-116 96-212 212-212 118 0 214 96 214 212 0 118-96 214-214 214zM618 0c-94 0-170 76-170 170s76 172 170 172c94 0 172-78 172-172s-78-170-172-170zM746 810h-298c-12 0-22-8-22-20v-86c0-12 10-22 22-22h298c12 0 22 10 22 22v86c0 12-10 20-22 20zM726 726h-256v42h256z" />
<glyph unicode="&#xe153;" glyph-name="photo-camera-filled" d="M256 256c0-24-20-42-42-42-24 0-44 18-44 42s20 42 44 42c22 0 42-18 42-42zM618 342c-94 0-170-78-170-172s76-170 170-170c94 0 172 76 172 170s-78 172-172 172zM618 42c-70 0-128 58-128 128 0 72 58 128 128 128 72 0 128-56 128-128 0-70-56-128-128-128zM618 256c-46 0-84-38-84-86 0-46 38-84 84-84 48 0 86 38 86 84 0 48-38 86-86 86zM896 426h-76l-70 70 34 102h48c12 0 22 8 22 20v256c0 12-10 22-22 22h-470c-12 0-20-10-20-22v-256c0-12 8-20 20-20h50l32-102-68-70h-78v22c0 36-28 64-64 64h-42c-36 0-64-28-64-64v-22c-48 0-86-38-86-84v-384c0-48 38-86 86-86h768c48 0 86 38 86 86v384c0 46-38 84-86 84zM214 170c-48 0-86 38-86 86s38 86 86 86c46 0 84-38 84-86s-38-86-84-86zM426 704v86c0 12 10 20 22 20h298c12 0 22-8 22-20v-86c0-12-10-22-22-22h-298c-12 0-22 10-22 22zM738 598l-28-86h-226l-28 86zM618-42c-116 0-212 96-212 212 0 118 96 214 212 214 118 0 214-96 214-214 0-116-96-212-214-212z" />
<glyph unicode="&#xe19c;" glyph-name="tape-recorder" d="M938 436v44c0 36-36 66-84 74v108c0 34-30 64-64 64h-556c-34 0-64-30-64-64v-108c-48-8-84-38-84-74v-44c-52-34-86-92-86-158 0-106 86-192 192-192h640c106 0 192 86 192 192 0 66-34 124-86 158zM234 682h556c12 0 20-8 20-20v-108h-596v108c0 12 8 20 20 20zM632 512l-44-42h-152l-44 42zM42 278c0 82 68 148 150 148s150-66 150-148c0-84-68-150-150-150s-150 66-150 150zM312 128c44 36 72 90 72 150 0 106-86 192-192 192-22 0-44-4-64-12v22c0 14 28 32 64 32h140l80-80c4-4 10-6 14-6h172c4 0 10 2 14 6l80 80h140c36 0 64-18 64-32v-22c-20 8-42 12-64 12-106 0-192-86-192-192 0-60 28-114 72-150zM832 128c-82 0-150 66-150 150 0 82 68 148 150 148s150-66 150-148c0-84-68-150-150-150zM576 342h-128c-12 0-22-10-22-22s10-22 22-22h128c12 0 22 10 22 22s-10 22-22 22zM832 342c-36 0-64-30-64-64 0-36 28-64 64-64s64 28 64 64c0 34-28 64-64 64zM832 256c-12 0-22 10-22 22s10 20 22 20c12 0 22-8 22-20s-10-22-22-22zM256 278c0 34-28 64-64 64s-64-30-64-64c0-36 28-64 64-64s64 28 64 64zM170 278c0 12 10 20 22 20s22-8 22-20c0-12-10-22-22-22s-22 10-22 22z" />
<glyph unicode="&#xe1eb;" glyph-name="paper-tablet" d="M874 768h-148v22c0 12-10 20-22 20h-66c-10 50-54 86-104 86-52 0-96-36-106-86h-66c-12 0-20-8-20-20v-22h-150c-12 0-22-10-22-22v-852c0-12 10-22 22-22h682c12 0 22 10 22 22v852c0 12-10 22-22 22zM362 598h342c12 0 22 8 22 20v22h42v-598h-470v598h44v-22c0-12 8-20 20-20zM384 768h64c12 0 22 10 22 22 0 34 28 64 64 64 34 0 64-30 64-64 0-12 8-22 20-22h64v-128h-298zM854-86h-640v812h128v-44h-64c-12 0-22-8-22-20v-640c0-12 10-22 22-22h512c12 0 20 10 20 22v640c0 12-8 20-20 20h-64v44h128zM384 470h298c12 0 22 8 22 20s-10 22-22 22h-298c-12 0-22-10-22-22s10-20 22-20zM384 384h298c12 0 22 10 22 22s-10 20-22 20h-298c-12 0-22-8-22-20s10-22 22-22zM384 298h298c12 0 22 10 22 22s-10 22-22 22h-298c-12 0-22-10-22-22s10-22 22-22zM384 214h298c12 0 22 8 22 20s-10 22-22 22h-298c-12 0-22-10-22-22s10-20 22-20z" />
<glyph unicode="&#xe24b;" glyph-name="plus" d="M960 426h-448v448c0 12-8 22-20 22 0 0 0 0 0 0-12 0-22-10-22-22v-448h-448c-12 0-22-8-22-20s10-22 22-22h448v-448c0-12 8-22 20-22s22 10 22 22v448h448c12 0 22 10 22 22s-10 20-22 20z" />
<glyph unicode="&#xe24c;" glyph-name="plus-filled" d="M982 426h-426v428c0 22-20 42-42 42 0 0 0 0 0 0-24 0-44-20-44-42v-428h-428c-22 0-42-18-42-42s20-42 42-42h428v-428c0-22 18-42 42-42v0c24 0 42 20 42 42l2 428h426c24 0 42 18 42 42s-18 42-42 42z" />
<glyph unicode="&#xe24d;" glyph-name="plus-rd" d="M490 896c-270 0-490-220-490-490 0-130 50-254 144-346 92-94 214-146 346-146 0 0 0 0 0 0 270 0 490 220 492 490 0 270-220 492-492 492zM490-42v0c-248 0-448 202-448 448 2 246 202 448 450 448 246-2 448-202 446-450 0-246-200-446-448-446zM746 426h-234v236c0 12-10 20-22 20s-20-8-20-20v-236h-240c0 0 0 0 0 0-12 0-20-8-20-20s8-22 20-22h240v-234c0-12 8-22 20-22s22 10 22 22v234h234c12 0 22 10 22 20 0 12-10 22-22 22z" />
<glyph unicode="&#xe24e;" glyph-name="plus-sq-filled" d="M960 874h-938c-12 0-22-8-22-20v-940c0-12 10-20 22-20h938c12 0 22 8 22 20v940c0 12-10 20-22 20zM750 362h-238v-234c0-12-10-22-22-22-10 0-20 10-20 22v234h-236c-10 0-20 10-20 22s10 22 20 22c0 0 0 0 0 0h236v234c0 12 10 22 20 22 12 0 22-10 22-22v-234l238-2c12 0 22-8 22-20s-10-22-22-22z" />
<glyph unicode="&#xe24f;" glyph-name="plus-sq" d="M234 384h236v-234c0-12 8-22 20-22s22 10 22 22v234h238c12 0 22 10 22 20 0 12-10 22-22 22h-238v236c0 12-10 20-22 20s-20-8-20-20v-236h-236c-12 0-20-8-20-20s8-22 20-22zM960 896h-938c-12 0-22-10-22-22v-938c0-12 10-22 22-22h938c12 0 22 10 22 22v938c0 12-10 22-22 22zM938-42h-896v896h896z" />
<glyph unicode="&#xe256;" glyph-name="full-screen1-filled" d="M982 598c24 0 42 18 42 42v214c0 2 0 4 0 8 0 0-2 2-2 4 0 0 0 2-2 4 0 0 0 2-2 4 0 0 0 2-2 2 0 4-2 6-4 8 0 0 0 0 0 0s0 0 0 0c-2 2-4 4-6 4-2 2-2 2-4 2-2 2-2 2-4 2-2 2-2 2-4 2s-2 0-4 0c-2 2-6 2-8 2 0 0 0 0 0 0h-214c0 0 0 0 0 0-24 0-42-20-42-42 0-24 18-44 42-44h110l-366-366-366 366h110c0 0 0 0 0 0 24 0 42 20 44 42 0 24-20 44-44 44h-212c0 0 0 0 0 0-4 0-6 0-10 0 0 0 0-2-2-2s-4 0-6-2c0 0 0 0-2 0-2-2-2-2-4-4-2 0-6-2-8-4 0 0 0 0 0 0s0 0 0 0 0-2 0-2c-2-2-4-4-4-6-2 0-2-2-2-2-2-2-2-4-2-4-2-2-2-4-2-6 0 0 0-2 0-2-2-2-2-6-2-8 0 0 0 0 0 0v-214c0-24 20-42 42-42v0c24 0 44 18 44 42v110l366-366-366-366v110c0 24-20 42-44 42-22 0-42-18-42-42v-214c0-2 0-4 0-8 2 0 2-2 2-4 0 0 0-2 2-4 0-2 0-2 2-4 0 0 0-2 2-4 0-2 2-4 4-4 0-2 0-2 0-2s0 0 2 0c0-2 2-4 6-4 0-2 2-2 2-2 2-2 4-2 4-2 2-2 4-2 4-2 2 0 4 0 4-2 4 0 6 0 8 0h192c24 0 44 20 44 42 0 24-20 44-44 44h-88l366 366 366-366h-110c-24 0-42-20-42-44 0-22 18-42 42-42h214c0 0 0 0 0 0s0 0 0 0c10 0 22 4 30 12 8 10 12 22 12 32v214c0 24-18 42-42 42s-44-18-44-42v-112l-366 366 366 366v-110c0-24 20-42 44-42z" />
<glyph unicode="&#xe257;" glyph-name="full-screen" d="M1002 640c12 0 22 10 22 22v212c0 12-10 22-22 22h-212c-12 0-22-10-22-22s10-20 22-20h162l-440-440-438 440 162-2c0 0 0 0 0 0 12 0 22 10 22 22s-10 22-22 22h-214c0 0 0 0 0 0-6 0-12-2-16-6s-6-10-6-16v-212c0-12 10-22 22-22s20 10 20 22v162l440-440-440-438v162c0 12-8 22-20 22s-22-10-22-22v-212c0 0 0 0 0 0v-2c0-12 10-22 22-22h212c12 0 22 10 22 22s-10 20-22 20h-162l440 440 438-440h-160c-12 0-22-8-22-20s10-22 22-22h212c12 0 22 10 22 22v212c0 12-10 22-22 22s-20-10-20-22v-162l-440 440 440 438v-160c0-12 8-22 20-22z" />
<glyph unicode="&#xe260;" glyph-name="full-screen3-filled" d="M982 896h-278c-24 0-42-20-42-42 0-24 18-44 42-44h234v-148c0-24 20-44 44-44s42 20 42 44v192c0 22-18 42-42 42zM42 618c24 0 44 20 44 44v148h234c24 0 42 20 42 44 0 22-18 42-42 42h-278c-22 0-42-20-42-42v-192c0-24 20-44 42-44zM982 170c-24 0-44-18-44-42v-170h-256c-22 0-42-20-42-44 0-22 20-42 42-42h300c24 0 42 20 42 42v214c0 24-18 42-42 42zM342-42h-256v170c0 24-20 42-44 42-22 0-42-18-42-42v-214c0-22 20-42 42-42h300c24 0 42 20 42 42 0 24-18 44-42 44zM214 534v-300c0-12 10-20 20-20h556c12 0 20 8 20 20v300c0 12-8 20-20 20h-556c-10 0-20-8-20-20z" />
<glyph unicode="&#xe261;" glyph-name="full-screen3" d="M1002 896h-298c-12 0-22-10-22-22s10-20 22-20h278v-192c0-12 8-22 20-22s22 10 22 22v212c0 12-10 22-22 22zM22 640c12 0 20 10 20 22v192h278c12 0 22 8 22 20s-10 22-22 22h-298c-12 0-22-10-22-22v-212c0-12 10-22 22-22zM1002 128c-12 0-20-10-20-22v-192h-278c-12 0-22-8-22-20s10-22 22-22h298c12 0 22 10 22 22v212c0 12-10 22-22 22zM320-86h-278v192c0 12-8 22-20 22s-22-10-22-22v-212c0-12 10-22 22-22h298c12 0 22 10 22 22s-10 20-22 20zM214 534v-300c0-12 8-20 20-20h556c12 0 20 8 20 20v300c0 12-8 20-20 20h-556c-12 0-20-8-20-20zM256 512h512v-256h-512z" />
<glyph unicode="&#xe271;" glyph-name="minus" d="M982 384h-960c0 0 0 0 0 0-12 0-22-10-22-22s10-20 22-20l960-2c12 0 20 10 20 22s-8 22-20 22z" />
<glyph unicode="&#xe272;" glyph-name="minus-filled" d="M982 434l-940 2c0 0 0 0 0 0-22 0-42-20-42-44 0-22 20-42 42-42h940c22 0 42 18 42 42s-20 42-42 42z" />
<glyph unicode="&#xe273;" glyph-name="minus-rd" d="M490 896c-270 0-490-220-490-490 0-130 50-254 144-346 92-94 214-146 346-146 0 0 0 0 0 0 270 0 490 220 492 490 0 270-220 492-492 492zM490-42v0c-120 0-232 46-316 132-86 84-132 196-132 316 2 246 202 448 450 448 246-2 448-202 446-450 0-246-200-446-448-446zM746 426h-512c0 0 0 0 0 0-12 0-20-8-20-20s8-22 20-22h512c12 0 22 10 22 20 0 12-10 22-22 22z" />
<glyph unicode="&#xe274;" glyph-name="minus-sq-filled" d="M976 868c-4 4-10 6-14 6h-940c0 0 0 0 0 0-6 0-12-2-16-6s-6-8-6-14v-940c0-12 10-20 22-20h938c12 0 22 8 22 20v938c0 6-2 12-6 16zM746 362h-512c-10 0-20 10-20 22s10 22 20 22c0 0 0 0 0 0l512-2c12 0 22-8 22-20s-10-22-22-22z" />
<glyph unicode="&#xe275;" glyph-name="minus-sq" d="M234 384h512c12 0 22 10 22 20 0 12-10 22-22 22h-512c-12 0-22-8-22-20s10-22 22-22zM960 896h-938c-6 0-12-2-16-6s-6-10-6-16v-938c0-12 10-22 22-22h938c10 0 20 10 20 22l2 938c0 12-10 22-22 22zM938-42h-896v896l896-2z" />
<glyph unicode="&#xe28e;" glyph-name="full-screen2-filled" d="M1024 854c0 2 0 4 0 8 0 0 0 2-2 4 0 0 0 2 0 4-2 0-2 2-2 4-2 0-2 2-2 2-4 6-8 10-12 12-2 2-2 2-4 2 0 0-2 2-4 2 0 0-2 2-4 2 0 0-2 0-4 0-2 2-4 2-4 2-2 0-2 0-4 0h-214c0 0 0 0 0 0-22 0-42-18-42-42s20-44 42-44h112l-270-268c-16-16-16-44 0-60 8-8 20-12 30-12 12 0 22 4 30 12l270 268v-110c0-24 18-42 42-42 0 0 0 0 0 0 24 0 42 18 42 42v212c0 2 0 2 0 2zM354 286l-268-268v110c0 24-20 44-44 44-22 0-42-20-42-44v-210c0-8 2-18 8-26 0-2 2-6 4-8 8-8 20-12 30-12h214c24 0 42 20 42 42 0 24-18 44-42 44h-110l268 268c18 16 18 44 0 60-16 16-42 16-60 0zM42 598c24 0 44 20 44 42v112l268-270c8-8 20-12 30-12s22 4 30 12c16 16 16 44 0 60l-268 268h110c0 0 0 0 0 0 24 0 44 20 44 44s-20 42-44 42h-210c-8 2-18-2-26-6-2-2-6-4-8-6-8-8-12-20-12-30v-214c0-22 20-42 42-42zM982 170c0 0 0 0 0 0-24 0-44-18-44-42v-110l-268 268c-16 18-42 18-60 0-16-16-16-44 0-60l268-268h-110c0 0 0 0 0 0-24 0-42-20-42-44 0-22 18-42 42-42h212c2 0 2 0 2 0 2 0 4 0 8 0 0 0 2 2 4 2 0 0 2 0 4 0 0 2 2 2 4 2 0 2 2 2 2 2 2 2 4 4 6 6 0 0 2 0 2 0 2 2 2 4 4 6s2 2 2 4c2 2 2 2 2 4 2 2 2 2 2 4s0 2 0 4c2 2 2 6 2 8 0 0 0 0 0 0v214c0 24-18 42-42 42z" />
<glyph unicode="&#xe28f;" glyph-name="full-screen2" d="M348 250l-306-304v160c0 12-8 22-20 22s-22-10-22-22v-210c0 0 0 0 0 0v-2c0-12 10-22 22-22h212c12 0 22 10 22 22s-10 20-22 20h-162l306 306c8 8 8 22 0 30s-22 8-30 0zM1002 896h-212c-12 0-22-10-22-22s10-20 22-20h162l-306-306c-8-8-8-22 0-30 4-4 10-6 16-6 4 0 10 2 14 6l306 304v-160c0-12 8-22 20-22s22 10 22 22v212c0 12-10 22-22 22zM72 854h162c12 0 22 8 22 20s-10 22-22 22h-212c0 0 0 0 0 0-4 0-6 0-8-2-4 0-6-2-8-4 0 0 0 0 0 0s0 0 0 0c-2-2-4-4-4-8-2-2-2-4-2-8v-212c0-12 10-22 22-22s20 10 20 22v162l306-306c4-4 10-6 16-6 4 0 10 2 14 6 8 8 8 22 0 30zM1002 128c-12 0-20-10-20-22v-162l-306 306c-8 8-22 8-30 0s-8-22 0-30l304-306h-160c-12 0-22-8-22-20s10-22 22-22h212c12 0 22 10 22 22v212c0 12-10 22-22 22z" />
<glyph unicode="&#xe29b;" glyph-name="load" d="M290 446c-8 8-22 6-30-2l-98-120c-12 78 4 154 42 222 48 80 128 138 220 158 124 30 252-12 334-106 8-8 22-10 32-2 8 8 8 22 0 30-92 106-236 152-374 120-104-24-194-90-248-178-40-70-58-148-52-228l-76 116c-8 10-20 12-30 6-10-8-12-20-6-30l118-178c4-6 10-8 16-10 2 0 2 0 2 0 6 0 12 4 16 8l138 164c6 10 6 22-4 30zM1002 270l-118 178c-4 6-10 8-18 8-6 2-12-2-16-6l-138-164c-8-10-6-22 2-30 10-8 24-6 30 2l96 114c6-154-100-294-260-332-114-26-234 6-318 90-8 8-22 8-30 0s-8-22 0-30c74-72 170-112 270-112 30 0 58 4 88 10 178 42 298 200 294 372l82-124c4-6 12-10 18-10 4 0 8 2 12 4 10 8 12 20 6 30z" />
<glyph unicode="&#xe29c;" glyph-name="load-filled" d="M1018 278l-104 178c0 2-2 6-6 8-6 8-16 14-26 14-14 2-28-4-38-16l-136-162c-16-18-14-46 4-60 18-16 46-14 60 4l62 74c-22-120-120-228-246-258-108-24-220 8-298 86-18 16-44 16-62-2-16-16-16-42 2-60 76-76 178-118 284-118 30 0 62 4 92 12 154 36 274 162 308 308l30-52c8-14 22-20 38-20 6 0 14 2 20 6 20 10 28 36 16 58zM316 462c-18 16-44 14-60-4l-74-88c2 54 18 108 46 158 48 78 126 136 214 156 114 26 234-12 312-100 16-18 44-20 60-4 18 16 20 42 4 60-98 112-250 162-396 128-110-26-208-98-266-196-26-46-44-94-52-142l-24 40c-14 20-40 26-60 14s-26-38-14-58l110-182c6-12 18-20 32-20 2 0 2 0 4 0 12 0 24 6 32 14l138 164c14 18 12 46-6 60z" />
<glyph unicode="&#xe2a8;" glyph-name="cross" d="M542 384l476 476c8 8 8 22 0 30s-22 8-30 0l-476-476-476 476c-8 8-22 8-30 0s-8-22 0-30l476-476-476-476c-8-8-8-22 0-30 4-4 10-6 16-6 4 0 10 2 14 6l476 476 476-476c4-4 10-6 14-6 6 0 12 2 16 6 8 8 8 22 0 30z" />
<glyph unicode="&#xe2aa;" glyph-name="cross-filled" d="M572 384l440 440c16 16 16 42 0 60-18 16-44 16-60 0l-440-440-440 440c-16 16-42 16-60 0-16-18-16-44 0-60l440-440-440-440c-16-16-16-42 0-60 8-8 20-12 30-12 12 0 22 4 30 12l440 440 440-440c8-8 18-12 30-12 10 0 22 4 30 12 16 18 16 44 0 60z" />
<glyph unicode="&#xe2b7;" glyph-name="spanners" d="M962 200c-52 52-128 70-198 46l-134 134 134 136c20-6 40-10 62-10 52 0 100 20 136 56 56 56 70 136 40 208-2 6-8 10-16 12-6 2-14 0-18-6l-76-78h-60v66l76 76c4 4 6 12 6 18-2 8-6 14-14 16-24 10-48 16-74 16-52 0-100-20-136-56-52-52-70-128-46-198l-136-134-134 134c24 70 6 146-46 198-56 56-136 72-208 40-6-2-12-8-12-16-2-6 0-14 6-18l78-76v-66h-66l-76 78c-4 6-12 8-20 6-6-2-12-6-14-12-32-72-16-154 40-210 52-52 128-68 198-44l134-136-134-134c-20 6-42 10-62 10-52 0-100-20-136-56-56-56-72-138-40-210 2-8 8-12 14-14 8 0 14 2 20 6l76 76h66v-60l-78-76c-6-4-8-12-6-20 0-6 6-12 12-14 24-10 50-16 74-16 52 0 100 20 136 56 50 52 68 128 44 198l134 134 136-134c-24-70-6-146 46-198 36-36 86-56 136-56 24 0 50 4 74 16 8 2 12 8 14 14 0 8-2 14-6 20l-76 76v60h60l76-76c4-4 12-6 18-6 8 2 14 6 16 14 32 72 16 154-40 210zM274 556c-6 6-16 6-24 4-56-24-120-12-164 30-34 36-50 84-42 130l58-58c4-4 8-6 14-6h98c12 0 20 8 20 20v98c0 4-2 10-6 14l-58 56c46 8 92-6 128-40 42-44 56-108 32-164-4-8-2-18 4-24l144-144-60-62zM330 122c24-56 12-122-30-164-36-34-84-50-130-42l58 58c4 4 6 8 6 14v90c0 12-8 22-20 22h-98c-6 0-10-2-14-6l-58-56c-8 48 8 96 42 132 28 28 66 44 106 44 20 0 40-4 58-12 8-4 18-2 24 4l410 410c6 6 8 16 4 24-24 56-12 120 32 164 28 28 66 42 106 42 8 0 18 0 26-2l-56-56c-4-4-6-10-6-14v-98c0-12 8-20 20-20h92c4 0 10 2 14 6l56 58c8-46-6-92-40-128-28-28-66-44-106-44-20 0-40 4-58 12-8 4-18 2-24-4l-410-410c-6-6-8-16-4-24zM972 38l-56 56c-4 4-10 6-14 6h-92c-12 0-20-10-20-22v-90c0-6 2-10 6-14l56-58c-48-8-96 8-132 42-44 44-56 108-32 164 4 8 2 18-4 24l-146 144 62 60 144-144c6-6 16-8 24-4 56 24 120 10 164-32 34-36 50-84 40-132z" />
<glyph unicode="&#xe2b8;" glyph-name="spanners-filled" d="M962 206c-52 52-128 70-198 46l-134 136 134 134c20-6 40-10 62-10 52 0 100 20 136 56 56 56 72 136 40 208-2 6-8 12-16 12-6 2-14 0-18-6l-76-78h-60v66l76 76c4 6 6 12 6 20-2 6-6 12-14 14-24 10-48 16-74 16-52 0-100-20-136-56-52-52-70-128-46-198l-136-134-134 134c24 70 6 146-46 198-56 56-136 72-208 40-6-2-12-8-12-14-2-8 0-16 6-20l78-76v-66h-66l-76 78c-4 6-12 8-20 6-6 0-12-6-14-12-32-72-16-154 40-210 52-52 128-68 198-44l134-136-134-134c-20 6-42 10-62 10-52 0-100-20-136-56-56-56-72-138-40-210 2-8 8-12 14-14 8 0 14 2 20 6l76 76h66v-60l-78-76c-6-4-8-12-6-18 0-8 6-14 12-16 24-10 50-16 74-16 0 0 0 0 0 0 52 0 100 20 136 56 50 52 68 128 44 198l134 134 136-134c-24-70-6-146 46-198 36-36 86-56 136-56 24 0 50 6 74 16 8 2 12 8 14 16 0 6-2 14-6 18l-76 76v60h60l76-76c4-4 12-6 18-6 8 2 14 6 16 14 32 72 16 154-40 210z" />
<glyph unicode="&#xe2fb;" glyph-name="time-truck" d="M1020 118l-106 170c-4 6-10 10-18 10h-170v108c0 12-10 20-22 20h-234v-42h212v-404h-194c-10 36-44 62-82 62-40 0-74-26-82-64h-68v320h-42v-340c0-6 2-12 6-16s10-6 14-6c0 0 0 0 0 0h88c10-36 44-64 84-64s72 28 82 64h262c10-36 42-64 82-64s72 28 82 64h88c12 0 22 10 22 22v148c0 4-2 8-4 12zM406-86c-24 0-44 20-44 44 0 22 20 42 44 42 22 0 42-20 42-42 0-24-20-44-42-44zM884 256l66-106h-224v106zM832-86c-24 0-42 20-42 44 0 22 18 42 42 42s42-20 42-42c0-24-18-44-42-44zM982-22h-68c-10 38-42 64-82 64s-72-26-82-64h-24v128h252l4-6zM214 342c114 0 212 96 212 212s-98 214-212 214c-116 0-214-98-214-214s98-212 214-212zM214 726c92 0 170-80 170-172s-78-170-170-170c-94 0-172 78-172 170s78 172 172 172zM192 512h86c12 0 20 10 20 22s-8 20-20 20h-64v108c0 12-10 20-22 20s-22-8-22-20v-128c0-12 10-22 22-22zM150 192h-128c-12 0-22-10-22-22s10-20 22-20h128c12 0 20 8 20 20s-8 22-20 22zM150 128h-64c0 0 0 0 0 0-12 0-22-10-22-22s10-20 22-20h64c0 0 0 0 0 0 12 0 20 8 20 20s-8 22-20 22zM150 64h-22c0 0 0 0 0 0-12 0-22-10-22-22 0-10 10-20 22-20h22c0 0 0 0 0 0 12 0 20 8 20 20s-8 22-20 22z" />
<glyph unicode="&#xe309;" glyph-name="work-table" d="M1024 278c0 4-2 10-4 12l-212 382c-4 6-10 10-18 10h-492v150c0 12 10 22 22 22 18 0 44-10 56-22l14-16c-4-8-6-16-6-26 0-36 28-64 64-64s64 28 64 64c0 34-28 64-64 64-10 0-20-4-28-8l-14 16c-20 20-56 34-86 34-36 0-64-28-64-64v-150h-22c-8 0-14-4-18-10l-214-384c0 0 0-2 0-2s0 0 0-2c-2-2-2-4-2-6 0 0 0 0 0 0v0c0 0 0 0 0 0v-86c0-12 10-22 22-22h468v-256h-64c-12 0-20-8-20-20s8-22 20-22h172c12 0 20 10 20 22s-8 20-20 20h-64v256h468c12 0 22 10 22 22v84c0 0 0 0 0 2zM470 790c0-12-10-22-22-22s-22 10-22 22c0 6 4 10 6 14 0 0 0 0 0 0s0 0 2 0c2 4 8 6 14 6 12 0 22-8 22-20zM248 640h8v-64c0-12 10-22 22-22s20 10 20 22v64h478l190-342h-908zM982 214h-940v42h940zM850 374l-84 210c-2 8-10 14-20 14h-340c-10 0-20-8-22-18l-42-214c-2-6 0-12 4-16 4-6 10-8 16-8h470c0 0 0 0 0 0 12 0 22 8 22 20 0 4-2 8-4 12zM388 384l34 170h310l68-170z" />
<glyph unicode="&#xe315;" glyph-name="pig" d="M490 596c-12 0-22-10-20-22 0-12 10-20 22-20 72 4 142-16 200-60 4-2 8-4 12-4 6 0 12 4 18 10 6 8 4 22-6 30-64 48-146 72-226 66zM1024 426c0 12-10 22-22 22s-20-10-20-22c0-28-20-52-44-60-16 188-200 338-426 338-32 0-62-4-94-10-32 46-84 74-140 74-30 0-60-8-86-24-6-2-10-10-10-18s4-14 10-18c30-18 52-46 60-80-84-54-142-134-160-222h-70c-12 0-22-10-22-22v-170c0-12 10-22 22-22h102c40-78 110-138 196-174v-124c0-12 10-22 22-22s20 10 20 22v108c48-16 98-24 150-24s102 10 150 24v-108c0-12 8-22 20-22s22 10 22 22v124c132 56 226 172 234 304 48 10 86 52 86 104zM512 22c-158 0-298 78-356 200-4 8-12 12-20 12h-94v128h68c10 0 20 8 20 18 14 88 70 168 156 220 8 4 12 12 10 22-4 38-22 72-50 100 10 2 20 4 32 4 46 0 88-26 110-66 6-8 14-12 24-10 34 8 68 12 100 12 212 0 384-144 384-320 0-178-172-320-384-320zM298 406c0-24-18-44-42-44s-42 20-42 44c0 22 18 42 42 42s42-20 42-42z" />
<glyph unicode="&#xe36c;" glyph-name="bug" d="M1002 298h-86c-2 44-12 86-26 124l78 36c12 4 16 16 12 28-6 10-18 16-28 10l-80-34c-6 12-12 24-20 36-2 2-4 6-6 8-38 54-88 100-146 130 24 26 42 56 54 90 44 4 78 40 78 84 0 48-38 86-86 86-46 0-84-38-84-86 0-34 20-62 48-76-12-30-30-56-52-78-46 16-94 26-146 26s-100-10-146-26c-22 22-40 48-52 78 28 14 48 42 48 76 0 48-38 86-84 86-48 0-86-38-86-86 0-44 34-80 78-84 12-34 30-64 54-90-58-30-108-76-146-130-2-2-4-6-6-8-8-12-14-24-20-36l-80 34c-10 6-22 0-28-10-4-12 0-24 12-28l78-36c-14-38-24-80-26-124h-86c-12 0-22-8-22-20s10-22 22-22h86c2-48 12-94 30-138l-76-36c-10-6-16-18-10-30 4-6 12-12 20-12 2 0 6 2 8 2l78 38c70-124 202-208 354-208s284 84 354 208l78-38c2 0 6-2 8-2 8 0 16 6 20 12 6 12 0 24-10 30l-76 36c18 44 28 90 30 138h86c12 0 22 10 22 22s-10 20-22 20zM746 854c24 0 44-20 44-44 0-22-20-42-44-42-22 0-42 20-42 42 0 24 20 44 42 44zM234 810c0 24 20 44 44 44 22 0 42-20 42-44 0-22-20-42-42-42-24 0-44 20-44 42zM512 640c110 0 210-50 276-128h-552c66 78 166 128 276 128zM150 278c0 70 20 136 54 192h286v-554c-190 10-340 168-340 362zM534-84v554h286c34-56 54-122 54-192 0-194-150-352-340-362z" />
<glyph unicode="&#xe36d;" glyph-name="bug-filled" d="M182 512h660c-38 52-86 94-142 124 24 26 42 56 54 90 44 2 78 40 78 84 0 48-38 86-86 86-46 0-84-38-84-86 0-34 20-62 48-76-12-30-30-58-52-80-46 18-94 28-146 28s-100-10-146-28c-22 22-40 50-52 80 28 14 48 42 48 76 0 48-38 86-84 86-48 0-86-38-86-86 0-44 34-82 78-84 12-34 30-64 54-90-56-30-104-72-142-124zM152 460l-80 36c-10 4-22 0-28-10-4-12 0-24 12-30l78-34c-14-38-24-80-26-124h-86c-12 0-22-10-22-22 0-10 10-20 22-20h86c2-48 12-96 30-138l-76-38c-10-4-16-18-10-28 4-8 12-12 20-12 2 0 6 2 8 2l78 38c66-118 190-200 332-208v596h-334c-2-2-4-4-4-8zM1002 298h-86c-2 44-12 86-26 124l78 34c12 6 16 18 12 30-6 10-18 14-28 10l-80-36c0 4-2 6-4 8h-334v-596c142 8 266 90 332 208l78-38c2 0 6-2 8-2 8 0 16 4 20 12 6 10 0 24-10 28l-76 38c18 42 28 90 30 138h86c12 0 22 10 22 20 0 12-10 22-22 22z" />
<glyph unicode="&#xe412;" glyph-name="filter" d="M1022 884c-4 8-12 12-20 12h-980c-8 0-16-4-20-12s-2-16 2-22l422-510v-458c0-10 6-18 14-20 2-2 6-2 8-2 6 0 12 2 16 6l128 128c4 4 6 10 6 16v330l422 510c4 6 6 14 2 22zM560 372c-4-4-6-8-6-14v-328l-84-86v414c0 6-2 10-6 14l-398 482h892z" />
<glyph unicode="&#xe413;" glyph-name="filter-filled" d="M1022 884c-4 8-12 12-20 12h-980c-8 0-16-4-20-12s-2-16 2-22l422-510v-458c0-10 6-18 14-20 2-2 6-2 8-2 6 0 12 2 16 6l128 128c4 4 6 10 6 16v330l422 510c4 6 6 14 2 22z" />
<glyph unicode="&#xe414;" glyph-name="layers" d="M12 344l492-214c2-2 6-2 8-2s6 0 8 2l492 214c10 4 14 16 10 28-4 10-16 14-28 10l-482-210-482 210c-12 4-24 0-28-10-4-12 0-24 10-28zM994 254l-482-210-482 210c-12 4-24 0-28-10-4-12 0-24 10-28l492-214c2-2 6-2 8-2s6 0 8 2l492 214c10 4 14 16 10 28-4 10-16 14-28 10zM994 126l-482-210-482 210c-12 4-24 0-28-10-4-12 0-24 10-28l492-214c2-2 6-2 8-2s6 0 8 2l492 214c10 4 14 16 10 28-4 10-16 14-28 10zM12 472l492-214c2-2 6-2 8-2s6 0 8 2l492 214c6 2 12 10 12 18 0 10-6 16-12 20l-492 214c-4 2-12 2-16 0l-492-214c-6-4-12-10-12-20 0-8 6-16 12-18zM512 680l438-190-438-190-438 190z" />
<glyph unicode="&#xe415;" glyph-name="layers-filled" d="M12 344l492-214c2-2 6-2 8-2s6 0 8 2l492 214c10 4 14 16 10 28-4 10-18 14-28 10l-482-210-482 210c-12 4-24 0-28-10-4-12 0-24 10-28zM994 254l-482-210-482 210c-12 4-24 0-28-10-4-12 0-24 10-28l492-214c2-2 6-2 8-2s6 0 8 2l492 214c10 4 14 16 10 28-4 10-18 14-28 10zM994 126l-482-210-482 210c-12 4-24 0-28-10-4-12 0-24 10-28l492-214c2-2 6-2 8-2s6 0 8 2l492 214c10 4 14 16 10 28-4 10-18 14-28 10zM12 472l492-214c2-2 6-2 8-2s6 0 8 2l492 214c6 2 12 10 12 18 0 10-6 16-12 20l-492 214c-4 2-12 2-16 0l-492-214c-6-4-12-10-12-20 0-8 6-16 12-18z" />
<glyph unicode="&#xe419;" glyph-name="cubes" d="M312 514l214-86c2 0 4-2 8-2 2 0 4 2 8 2l212 86c8 2 14 10 14 20v276c0 2 0 2 0 2 0 2 0 4-2 6 0 2 0 2 0 2-2 4-4 6-6 8 0 0 0 0 0 0-2 0-2 0-2 0-2 2-4 2-6 4l-212 64c-4 0-8 0-12 0l-214-64c-2-2-4-2-4-4-2 0-2 0-2 0s0 0-2 0c-2-2-4-4-4-8-2 0-2 0-2-2s0-4-2-6c0 0 0 0 0-2v-276c0-10 6-18 14-20zM342 782l170-52v-250l-170 68zM726 548l-172-68v250l172 52zM534 852l138-42-138-40c0 0 0 0 0 0-2 0-2 0-2 0l-138 40zM982 364c0 0 0 0 0 0-2 2-2 4-2 6s0 2 0 2c-2 2-4 4-6 6 0 0 0 0 0 0 0 2-2 2-2 2-2 2-2 2-4 2l-172 64c-4 2-10 2-14 0l-170-64c0 0 0 0 0 0-2 0-4 0-6-2 0 0 0 0-2-2 0 0 0 0 0 0-2-2-4-4-4-6 0 0 0 0-2-2 0-2 0-4 0-6 0 0 0 0 0 0 0-2 0-2 0-2v-192c0-8 4-14 12-18l170-86c2-2 6-2 10-2 2 0 6 0 8 2l172 86c6 4 12 10 12 18v192c0 0 0 2 0 2zM790 404l110-42-110-40c0 0 0 0 0 0s0 0 0 0l-110 40zM640 332l128-48v-164l-128 64zM938 184l-128-64v164l128 48zM554 322c0 2 0 6-2 8 0 0 0 0 0 0 0 2-2 4-4 6 0 0 0 0-2 0 0 0 0 0 0 2-2 0-4 2-6 2 0 0 0 0 0 0l-256 86c-4 2-10 2-14 0l-256-86c0 0 0 0 0 0-2 0-4-2-6-2 0 0 0-2 0-2s0 0-2 0c-2-2-2-4-4-6 0 0 0 0 0 0 0-2-2-6-2-8 0 0 0 0 0 0 0-2 0-2 0-2v-342c0-8 6-16 14-20l256-84c2-2 6-2 8-2s4 0 6 2l256 84c8 4 14 12 14 20v342c0 0 0 0 0 2 0 0 0 0 0 0zM278 382l188-62-188-62c0 0 0 0 0 0s-2 0-2 0l-188 62zM42 290l214-70v-298l-214 72zM512-6l-214-72v298l214 70z" />
<glyph unicode="&#xe4a5;" glyph-name="grid" d="M960 896h-938c-12 0-22-10-22-22v-938c0-12 10-22 22-22h938c12 0 22 10 22 22v938c0 12-10 22-22 22zM938 854v-214h-896v214zM342 598h596v-300h-596zM42 598h256v-640h-256zM342-42v298h596v-298z" />
<glyph unicode="&#xe4b9;" glyph-name="way-left" d="M1002 426h-930l178 178c8 8 8 22 0 30s-22 8-30 0l-214-214c-2-2-4-4-4-6-2-6-2-12 0-16 0-4 2-6 4-8l214-214c4-4 10-6 14-6 6 0 12 2 16 6 8 10 8 22 0 32l-178 176h930c12 0 22 10 22 22s-10 20-22 20z" />
<glyph unicode="&#xe4ba;" glyph-name="way-right" d="M1022 398c2 4 2 10 0 16 0 2-2 4-4 6l-214 214c-8 8-22 8-30 0s-8-22 0-30l178-178h-930c-12 0-22-8-22-20s10-22 22-22h930l-178-176c-8-10-8-22 0-32 4-4 10-6 16-6 4 0 10 2 14 6l214 214c2 2 4 4 4 8z" />
<glyph unicode="&#xe50b;" glyph-name="marijuana" d="M512 0c-12 0-22-10-22-22v-84c0-12 10-22 22-22s22 10 22 22v84c0 12-10 22-22 22zM992 168c-4 2-112 66-246 66-14 0-26 0-40-2 26 20 52 42 78 68 118 118 168 258 170 264 4 8 2 16-4 22s-14 8-22 6c-6-2-146-52-266-172-22-22-42-46-60-68 10 48 16 102 16 160 0 204-84 366-88 372-6 14-30 14-36 0-4-6-88-168-88-372 0-58 6-112 16-160-18 22-38 46-60 68-120 120-260 170-266 172-8 2-16 0-22-6s-8-14-4-22c2-6 52-146 170-264 26-26 52-48 78-68-14 2-26 2-40 2-134 0-242-64-246-66-6-4-10-12-10-18 0-8 4-16 10-18 4-4 112-68 246-68 20 0 42 2 62 4-64-68-88-150-90-154-2-8 0-16 6-22 4-4 10-6 14-6 2 0 4 0 6 2 4 0 90 26 160 96 8 8 8 22 0 30s-22 8-30 0c-32-32-70-54-98-68 14 28 36 66 68 98 20 18 42 36 68 52 10 4 12 16 8 26s-16 16-26 12c-50-18-100-28-148-28-78 0-148 26-188 44 40 18 110 42 188 42 48 0 100-10 152-28 10-4 22 0 26 12 4 10 0 22-10 26-46 24-114 68-176 128-70 70-116 150-140 200 50-24 130-68 200-140 68-66 112-142 138-194 4-10 18-14 28-10 10 6 14 18 10 28-26 68-58 176-58 298 0 134 40 250 64 310 24-60 64-176 64-310 0-122-32-230-58-298-6-10 0-22 10-28 10-4 24 0 28 10 26 52 70 128 136 194 72 72 152 116 202 140-24-50-70-130-140-200-62-60-130-104-176-128-10-4-14-16-10-28 4-10 16-14 26-10 52 18 104 28 152 28 78 0 148-24 188-42-40-18-110-44-188-44-48 0-98 10-148 28-10 4-22-2-26-12s-2-22 8-26c26-16 48-34 68-52 32-32 54-70 68-98-28 14-66 36-98 68-8 8-22 8-30 0s-8-22 0-30c70-70 156-96 160-96 6-2 14 0 20 4 6 6 8 14 6 22-2 4-26 86-90 154 20-2 42-4 62-4 134 0 242 64 246 68 6 2 10 10 10 18 0 6-4 14-10 18z" />
<glyph unicode="&#xe50c;" glyph-name="marijuana-filled" d="M1014 168c-4 2-112 66-246 66-14 0-28 0-42-2 26 20 54 42 78 68 120 118 170 258 172 264 2 8 0 16-6 22-4 6-14 8-22 6-6-2-146-52-264-172-22-22-42-46-60-68 10 48 16 102 16 160 0 204-84 366-88 372-8 14-30 14-38 0-4-6-88-168-88-372 0-58 8-112 18-160-18 22-38 46-62 68-118 120-258 170-264 172-8 2-16 0-22-6s-8-14-6-22c2-6 54-146 172-264 26-26 52-48 78-68-14 2-28 2-42 2-134 0-240-64-246-66-6-4-10-12-10-18 0-8 4-16 10-18 6-4 112-68 246-68 22 0 42 2 64 4-66-68-90-150-90-154-2-8 0-16 6-22s14-6 22-4c6 2 132 52 212 110v-104c0-12 10-22 22-22s20 10 20 22v104c80-58 206-108 212-110 4 0 6-2 8-2 6 0 10 2 14 6 6 6 10 14 8 22-2 4-26 86-92 154 22-2 44-4 64-4 134 0 242 64 246 68 6 2 10 10 10 18 0 6-4 14-10 18z" />
<glyph unicode="&#xe5ca;" glyph-name="arrow-bottom" d="M1016 616c-8 8-22 8-30-2l-474-542-474 542c-8 10-22 10-30 2-10-8-10-20-2-30l490-560c4-6 10-8 16-8s12 2 16 8l490 560c8 10 8 22-2 30z" />
<glyph unicode="&#xe5cb;" glyph-name="arrow-top" d="M1018 182l-490 560c-8 10-24 10-32 0l-490-560c-8-10-8-22 2-30 8-8 22-8 30 2l474 542 474-542c4-6 10-8 16-8s10 2 14 6c10 8 10 20 2 30z" />
<glyph unicode="&#xe5cc;" glyph-name="arrow-left" d="M742-90l-542 474 542 474c10 8 10 22 2 30-8 10-20 10-30 2l-560-490c-6-4-8-10-8-16s2-12 8-16l560-490c4-4 10-6 14-6 6 0 12 2 16 8 8 8 8 22-2 30z" />
<glyph unicode="&#xe5cd;" glyph-name="arrow-right" d="M870 400l-560 490c-10 8-22 8-30-2-8-8-8-22 2-30l542-474-542-474c-10-8-10-22-2-30 4-6 10-8 16-8 4 0 10 2 14 6l560 490c6 4 8 10 8 16s-2 12-8 16z" />
<glyph unicode="&#xe5ce;" glyph-name="arrow-bottom-filled" d="M1008 698c-18 14-44 12-60-6l-436-522-436 522c-16 18-42 20-60 6-18-16-22-42-6-60l470-562c8-10 20-16 32-16s24 6 32 16l470 562c16 18 12 44-6 60z" />
<glyph unicode="&#xe5cf;" glyph-name="arrow-top-filled" d="M1014 132l-470 560c-16 20-48 20-64 0l-470-560c-16-18-12-46 6-60 18-16 44-14 60 4l436 522 436-522c10-10 22-14 34-14 10 0 18 2 26 10 18 14 22 42 6 60z" />
<glyph unicode="&#xe5d0;" glyph-name="arrow-left-filled" d="M298 384l522 436c18 16 20 42 6 60-16 18-42 22-60 6l-562-470c-10-8-16-20-16-32s6-24 16-32l560-470c8-6 18-10 28-10 12 0 24 6 34 16 14 18 12 44-6 60z" />
<glyph unicode="&#xe5d1;" glyph-name="arrow-right-filled" d="M820 416l-562 470c-18 16-44 12-60-6-14-18-12-44 6-60l522-436-522-436c-18-16-20-42-6-60 10-10 22-16 34-16 10 0 20 4 26 10l562 470c10 8 16 20 16 32s-6 24-16 32z" />
<glyph unicode="&#xe604;" glyph-name="arrow-left-sq-filled" d="M1072 969.143h-1120c-13.714 0-25.143-11.429-25.143-25.143v-1120c0-13.714 11.429-25.143 25.143-25.143h1120c13.714 0 25.143 11.429 25.143 25.143v1120c0 13.714-11.429 25.143-25.143 25.143zM646.857 105.143c9.143-9.143 9.143-25.143 0-34.286-4.571-4.571-11.429-6.857-16-6.857-6.857 0-13.714 2.286-18.286 6.857l-294.857 294.857c-9.143 11.429-9.143 25.143 0 36.571l294.857 294.857c9.143 9.143 25.143 9.143 34.286 0 9.143-11.429 9.143-25.143 0-34.286l-276.571-278.857z" />
<glyph unicode="&#xe605;" glyph-name="arrow-right-sq-filled" d="M1072 969.143h-1120c-13.714 0-25.143-11.429-25.143-25.143v-1120c0-13.714 11.429-25.143 25.143-25.143h1120c13.714 0 25.143 11.429 25.143 25.143v1120c0 13.714-11.429 25.143-25.143 25.143zM706.286 365.714l-294.857-294.857c-4.571-4.571-11.429-6.857-18.286-6.857-4.571 0-11.429 2.286-16 6.857-9.143 11.429-9.143 25.143 0 34.286l276.571 278.857-276.571 278.857c-9.143 9.143-9.143 22.857 0 34.286 9.143 9.143 25.143 9.143 34.286 0l294.857-294.857c9.143-11.429 9.143-25.143 0-36.571z" />
<glyph unicode="&#xe606;" glyph-name="arrow-left-sq" d="M626 110c4-4 10-6 16-6 4 0 10 2 14 6 8 8 8 22 0 30l-242 244 242 244c8 8 8 20 0 30-8 8-22 8-30 0l-258-258c-8-10-8-22 0-32zM1002 896h-980c-12 0-22-10-22-22v-980c0-12 10-22 22-22h980c12 0 22 10 22 22v980c0 12-10 22-22 22zM982-86h-940v940h940z" />
<glyph unicode="&#xe607;" glyph-name="arrow-right-sq" d="M394 110c4-4 10-6 14-6 6 0 12 2 16 6l258 258c8 10 8 22 0 32l-258 258c-8 8-22 8-30 0-8-10-8-22 0-30l242-244-242-244c-8-8-8-20 0-30zM1002 896h-980c-12 0-22-10-22-22v-980c0-12 10-22 22-22h980c12 0 22 10 22 22v980c0 12-10 22-22 22zM982-86h-940v940h940z" />
<glyph unicode="&#xf024;" glyph-name="fa-flag" d="M182.857 804.571q0-41.143-36.571-62.857v-723.43q0-7.429-5.429-12.857t-12.857-5.429h-36.571q-7.429 0-12.857 5.429t-5.429 12.857v723.43q-36.571 21.714-36.571 62.857 0 30.286 21.429 51.714t51.714 21.429 51.714-21.429 21.429-51.714zM1024 768v-436q0-14.286-7.143-22t-22.571-15.714q-122.858-66.287-210.857-66.287-34.857 0-70.571 12.571t-62 27.429-66 27.429-81.429 12.571q-109.714 0-265.143-83.429-9.714-5.143-18.857-5.143-14.857 0-25.713 10.858t-10.858 25.713v424q0 18.286 17.714 31.429 12 8 45.144 24.571 134.857 68.571 240.571 68.571 61.143 0 114.286-16.571t125.143-50.286q21.714-10.858 50.286-10.858 30.857 0 67.143 12t62.857 26.857 50.286 26.857 31.142 12q14.857 0 25.713-10.858t10.858-25.715z" />
<glyph unicode="&#xf099;" glyph-name="fa-twitter" horiz-adv-x="951" d="M925.714 717.714q-38.286-56-92.571-95.429 0.571-8 0.571-24 0-74.286-21.714-148.286t-66-142-105.429-120.286-147.429-83.429-184.571-31.143q-154.857 0-283.429 82.857 20-2.286 44.571-2.286 128.571 0 229.143 78.857-60 1.143-107.429 36.857t-65.143 91.143q18.857-2.857 34.857-2.857 24.571 0 48.571 6.286-64 13.143-106 63.714t-42 117.429v2.286q38.857-21.714 83.429-23.429-37.714 25.143-60 65.714t-22.286 88q0 50.286 25.143 93.143 69.143-85.143 168.286-136.286t212.286-56.857q-4.571 21.714-4.571 42.286 0 76.571 54 130.571t130.571 54q80 0 134.857-58.286 62.286 12 117.143 44.571-21.143-65.714-81.143-101.714 53.143 5.714 106.286 28.571z" />
<glyph unicode="&#xf09a;" glyph-name="fa-facebook" horiz-adv-x="585" d="M548 944v-150.857h-89.714q-49.143 0-66.286-20.571t-17.143-61.714v-108h167.429l-22.286-169.143h-145.143v-433.714h-174.857v433.714h-145.714v169.143h145.714v124.571q0 106.286 59.429 164.857t158.286 58.571q84 0 130.286-6.857z" />
<glyph unicode="&#xf09b;" glyph-name="fa-github" d="M877.714 438.857q0-143.429-83.714-258t-216.286-158.571q-15.429-2.857-22.571 4t-7.143 17.143v120.571q0 55.429-29.714 81.143 32.571 3.429 58.571 10.286t53.714 22.286 46.286 38 30.286 60 11.714 86q0 69.143-45.143 117.714 21.143 52-4.571 116.571-16 5.143-46.286-6.286t-52.571-25.143l-21.714-13.714q-53.143 14.857-109.714 14.857t-109.714-14.857q-9.143 6.286-24.286 15.429t-47.714 22-49.143 7.714q-25.143-64.571-4-116.571-45.143-48.571-45.143-117.714 0-48.571 11.714-85.714t30-60 46-38.286 53.714-22.286 58.571-10.286q-22.857-20.571-28-58.857-12-5.714-25.714-8.571t-32.571-2.857-37.429 12.286-31.714 35.714q-10.857 18.286-27.714 29.714t-28.286 13.714l-11.429 1.714q-12 0-16.571-2.571t-2.857-6.571 5.143-8 7.429-6.857l4-2.857q12.571-5.714 24.857-21.714t18-29.143l5.714-13.143q7.429-21.714 25.143-35.143t38.286-17.143 39.714-4 31.714 2l13.143 2.286q0-21.714 0.286-50.857t0.286-30.857q0-10.286-7.429-17.143t-22.857-4q-132.571 44-216.286 158.571t-83.714 258q0 119.429 58.857 220.286t159.714 159.714 220.286 58.857 220.286-58.857 159.714-159.714 58.857-220.286z" />
<glyph unicode="&#xf0d5;" glyph-name="fa-google-plus" horiz-adv-x="951" d="M420 496q0-20.571 18.286-40.286t44.286-38.857 51.714-42 44-59.429 18.286-81.143q0-51.429-27.429-98.857-41.143-69.714-120.571-102.571t-170.286-32.857q-75.429 0-140.857 23.714t-98 78.571q-21.143 34.286-21.143 74.857 0 46.286 25.429 85.714t67.714 65.714q74.857 46.857 230.857 57.143-18.286 24-27.143 42.286t-8.857 41.714q0 20.571 12 48.571-26.286-2.286-38.857-2.286-84.571 0-142.571 55.143t-58 139.714q0 46.857 20.571 90.857t56.571 74.857q44 37.714 104.286 56t124.286 18.286h238.857l-78.857-50.286h-74.857q42.286-36 64-76t21.714-91.429q0-41.143-14-74t-33.714-53.143-39.714-37.143-34-35.143-14-37.714zM336.571 550.857q21.714 0 44.571 9.429t37.714 24.857q30.286 32.571 30.286 90.857 0 33.143-9.714 71.429t-27.714 74-48.286 59.143-66.857 23.429q-24 0-47.143-11.143t-37.429-30q-26.857-33.714-26.857-91.429 0-26.286 5.714-55.714t18-58.857 29.714-52.857 42.857-38.286 55.143-14.857zM337.714 52q33.143 0 63.714 7.429t56.571 22.286 41.714 41.714 15.714 62.286q0 14.286-4 28t-8.286 24-15.429 23.714-16.857 20-22 19.714-20.857 16.571-23.714 17.143-20.857 14.857q-9.143 1.143-27.429 1.143-30.286 0-60-4t-61.429-14.286-55.429-26.286-39.143-42.571-15.429-60.286q0-40 20-70.571t52.286-47.429 68-25.143 72.857-8.286zM800.571 552.571h121.714v-61.714h-121.714v-125.143h-60v125.143h-121.143v61.714h121.143v124h60v-124z" />
<glyph unicode="&#xf0e0;" glyph-name="fa-envelope" d="M1024 545.143v-453.714q0-37.714-26.857-64.571t-64.571-26.857h-841.143q-37.714 0-64.571 26.857t-26.857 64.571v453.714q25.143-28 57.714-49.714 206.857-140.571 284-197.143 32.571-24 52.857-37.429t54-27.429 62.857-14h1.143q29.143 0 62.857 14t54 27.429 52.857 37.429q97.143 70.286 284.571 197.143 32.571 22.286 57.143 49.714zM1024 713.143q0-45.143-28-86.286t-69.714-70.286q-214.857-149.143-267.429-185.714-5.714-4-24.286-17.429t-30.857-21.714-29.714-18.571-32.857-15.429-28.571-5.143h-1.143q-13.143 0-28.571 5.143t-32.857 15.429-29.714 18.571-30.857 21.714-24.286 17.429q-52 36.571-149.714 104.286t-117.143 81.429q-35.429 24-66.857 66t-31.429 78q0 44.571 23.714 74.286t67.714 29.714h841.143q37.143 0 64.286-26.857t27.143-64.571z" />
<glyph unicode="&#xf0e1;" glyph-name="fa-linkedin" d="M199.429 593.714v-566.286h-188.571v566.286h188.571zM211.429 768.571q0.571-41.714-28.857-69.714t-77.429-28h-1.143q-46.857 0-75.429 28t-28.571 69.714q0 42.286 29.429 70t76.857 27.714 76-27.714 29.143-70zM877.714 352v-324.571h-188v302.857q0 60-23.143 94t-72.286 34q-36 0-60.286-19.714t-36.286-48.857q-6.286-17.143-6.286-46.286v-316h-188q1.143 228 1.143 369.714t-0.571 169.143l-0.571 27.429h188v-82.286h-1.143q11.429 18.286 23.429 32t32.286 29.714 49.714 24.857 65.429 8.857q97.714 0 157.143-64.857t59.429-190z" />
<glyph unicode="&#xf110;" glyph-name="fa-spinner" d="M300.571 154.286q0-30.286-21.429-51.714t-51.714-21.429q-29.714 0-51.429 21.714t-21.714 51.429q0 30.286 21.429 51.714t51.714 21.429 51.714-21.429 21.429-51.714zM585.143 36.571q0-30.286-21.429-51.714t-51.714-21.429-51.714 21.429-21.429 51.714 21.429 51.714 51.714 21.429 51.714-21.429 21.429-51.714zM182.857 438.857q0-30.286-21.429-51.714t-51.714-21.429-51.714 21.429-21.429 51.714 21.429 51.714 51.714 21.429 51.714-21.429 21.429-51.714zM869.714 154.286q0-29.714-21.714-51.429t-51.429-21.714q-30.286 0-51.714 21.429t-21.429 51.714 21.429 51.714 51.714 21.429 51.714-21.429 21.429-51.714zM318.857 723.428q0-37.714-26.857-64.571t-64.571-26.857-64.571 26.857-26.857 64.571 26.857 64.571 64.571 26.857 64.571-26.857 26.857-64.571zM987.429 438.857q0-30.286-21.429-51.714t-51.714-21.429-51.714 21.429-21.429 51.714 21.429 51.714 51.714 21.429 51.714-21.429 21.429-51.714zM621.714 841.143q0-45.714-32-77.714t-77.714-32-77.714 32-32 77.714 32 77.714 77.714 32 77.714-32 32-77.714zM924.571 723.428q0-53.143-37.714-90.571t-90.286-37.429q-53.143 0-90.571 37.429t-37.429 90.571q0 52.571 37.429 90.286t90.571 37.714q52.571 0 90.286-37.714t37.714-90.286z" />
<glyph unicode="&#xf16a;" glyph-name="fa-youtube-play" d="M731.429 438.857q0 21.143-17.143 30.857l-292.571 182.857q-17.714 11.429-37.143 1.143-18.857-10.286-18.857-32v-365.714q0-21.714 18.857-32 9.143-4.571 17.714-4.571 11.429 0 19.429 5.714l292.571 182.857q17.143 9.714 17.143 30.857zM1024 438.857q0-54.857-0.571-85.714t-4.857-78-12.857-84.286q-9.143-41.714-39.429-70.286t-70.857-33.143q-126.857-14.286-383.429-14.286t-383.429 14.286q-40.571 4.571-71.143 33.143t-39.714 70.286q-8 37.143-12.286 84.286t-4.857 78-0.571 85.714 0.571 85.714 4.857 78 12.857 84.286q9.143 41.714 39.429 70.286t70.857 33.143q126.857 14.286 383.429 14.286t383.429-14.286q40.571-4.571 71.143-33.143t39.714-70.286q8-37.143 12.286-84.286t4.857-78 0.571-85.714z" />
<glyph unicode="&#xf16d;" glyph-name="fa-instagram" d="M778.286 136v370.286h-77.143q11.429-36 11.429-74.857 0-72-36.571-132.857t-99.429-96.286-137.143-35.429q-112.571 0-192.571 77.429t-80 187.143q0 38.857 11.429 74.857h-80.571v-370.286q0-14.857 10-24.857t24.857-10h610.857q14.286 0 24.571 10t10.286 24.857zM616 440.571q0 70.857-51.714 120.857t-124.857 50q-72.571 0-124.286-50t-51.714-120.857 51.714-120.857 124.286-50q73.143 0 124.857 50t51.714 120.857zM778.286 646.286v94.286q0 16-11.429 27.714t-28 11.714h-99.429q-16.571 0-28-11.714t-11.429-27.714v-94.286q0-16.571 11.429-28t28-11.429h99.429q16.571 0 28 11.429t11.429 28zM877.714 765.143v-652.571q0-46.286-33.143-79.429t-79.429-33.143h-652.571q-46.286 0-79.429 33.143t-33.143 79.429v652.571q0 46.286 33.143 79.429t79.429 33.143h652.571q46.286 0 79.429-33.143t33.143-79.429z" />
<glyph unicode="&#xf16e;" glyph-name="fa-flickr" d="M713.143 877.714q68 0 116.286-48.286t48.286-116.286v-548.571q0-68-48.286-116.286t-116.286-48.286h-548.571q-68 0-116.286 48.286t-48.286 116.286v548.571q0 68 48.286 116.286t116.286 48.286h548.571zM398.857 438.857q0 50.286-35.429 85.714t-85.714 35.429-85.714-35.429-35.429-85.714 35.429-85.714 85.714-35.429 85.714 35.429 35.429 85.714zM721.143 438.857q0 50.286-35.429 85.714t-85.714 35.429-85.714-35.429-35.429-85.714 35.429-85.714 85.714-35.429 85.714 35.429 35.429 85.714z" />
<glyph unicode="&#xf173;" glyph-name="fa-tumblr" horiz-adv-x="585" d="M539.429 191.428l45.714-135.429q-13.143-20-63.429-37.714t-101.143-18.286q-59.429-1.143-108.857 14.857t-81.429 42.286-54.286 60.571-31.714 68.571-9.429 67.429v310.857h-96v122.857q41.143 14.857 73.714 39.714t52 51.429 33.143 58.286 19.429 56.571 8.571 50.571q0.571 2.857 2.571 4.857t4.286 2h139.429v-242.286h190.286v-144h-190.857v-296q0-17.143 3.714-32t12.857-30 28.286-23.714 46.571-8q44.571 1.143 76.571 16.571z" />
<glyph unicode="&#xf17d;" glyph-name="fa-dribbble" d="M585.143 93.714q-24 137.714-80 284.571h-1.143l-1.143-0.571q-9.143-3.429-24.571-9.429t-57.714-28-78.286-46.857-74.857-65.429-58.857-84.571l-8.571 6.286q105.143-85.714 238.857-85.714 75.429 0 146.286 29.714zM479.429 440.571q-12 28-30.286 63.429-177.714-53.143-384.571-53.143-0.571-4-0.571-12 0-70.857 25.143-135.143t70.857-115.143q28.571 50.857 70.571 95.143t81.429 71.143 74.571 46.286 56.857 27.429l21.143 7.429q2.286 0.571 7.429 2t7.429 2.571zM418.286 561.714q-68.571 121.714-139.429 216-78.857-37.143-133.714-106.286t-73.143-155.429q172.571 0 346.286 45.714zM809.143 379.428q-120 34.286-233.714 16.571 49.714-136.571 73.143-268 63.429 42.857 105.714 108.286t54.857 143.143zM349.143 802.857q-0.571 0-1.143-0.571 0.571 0.571 1.143 0.571zM686.286 720q-105.714 93.714-247.429 93.714-43.429 0-88.571-10.857 74.857-97.143 140.571-218.286 39.429 14.857 74.286 34.571t55.143 35.143 37.429 32.571 21.429 23.143zM813.714 442.857q-1.714 132.571-85.143 234.286l-0.571-0.571q-5.143-6.857-10.857-14t-24.857-25.429-40.571-34.571-57.143-37.143-75.143-36.857q14.286-30.286 25.143-54.286 1.143-3.429 3.714-10t4.286-9.429q20.571 2.857 42.571 4t42 1.143 39.429-0.857 36.571-2.286 32.286-3.143 27.429-3.714 20.857-3.429 14.286-2.571zM877.714 438.857q0-119.429-58.857-220.286t-159.714-159.714-220.286-58.857-220.286 58.857-159.714 159.714-58.857 220.286 58.857 220.286 159.714 159.714 220.286 58.857 220.286-58.857 159.714-159.714 58.857-220.286z" />
<glyph unicode="&#xf17e;" glyph-name="fa-skype" d="M670.286 343.428q0 28.571-11.143 52.286t-27.714 39.143-41.714 28-47.143 19.429-50 13.143l-59.429 13.714q-17.143 4-25.143 6t-20 6.571-17.143 9.143-9.429 12-4.286 17.143q0 44 82.286 44 24.571 0 44-6.857t30.857-16.286 21.714-19.143 22.857-16.571 27.429-6.857q26.857 0 43.143 18.286t16.286 44q0 31.429-32 56.857t-81.143 38.571-104 13.143q-38.857 0-75.429-8.857t-68.286-26.857-50.857-49.714-19.143-73.429q0-34.857 10.857-60.857t32-43.143 45.714-27.714 58.857-18.571l83.429-20.571q51.429-12.571 64-20.571 18.286-11.429 18.286-34.286 0-22.286-22.857-36.857t-60-14.571q-29.143 0-52.286 9.143t-37.143 22-26 25.714-26.286 22-30.857 9.143q-28.571 0-43.143-17.143t-14.571-42.857q0-52.571 69.714-90t166.286-37.429q41.714 0 80 10.571t70 30.571 50.571 53.429 18.857 75.143zM877.714 219.428q0-90.857-64.286-155.143t-155.143-64.286q-74.286 0-133.714 45.714-44-9.143-85.714-9.143-81.714 0-156.286 31.714t-128.571 85.714-85.714 128.571-31.714 156.286q0 41.714 9.143 85.714-45.714 59.429-45.714 133.714 0 90.857 64.286 155.143t155.143 64.286q74.286 0 133.714-45.714 44 9.143 85.714 9.143 81.714 0 156.286-31.714t128.571-85.714 85.714-128.571 31.714-156.286q0-41.714-9.143-85.714 45.714-59.429 45.714-133.714z" />
<glyph unicode="&#xf180;" glyph-name="fa-foursquare" horiz-adv-x="731" d="M571.429 702.857l21.143 110.857q2.857 13.143-5.143 22.857t-20 9.714h-406.857q-13.143 0-22-9.714t-8.857-21.143v-629.143q0-4 3.429-0.571l166.286 201.143q13.143 14.857 21.714 19.143t27.429 4.286h136.571q12.571 0 21.143 8.286t10.286 16.857q13.714 74.286 21.143 109.143 2.286 12-6.571 22.857t-20.857 10.857h-168q-16.571 0-27.429 10.857t-10.857 27.429v24q0 16.571 10.857 27.143t27.429 10.571h197.714q10.286 0 20 7.714t11.429 16.857zM701.143 829.714q-8.571-41.714-30.571-152.286t-39.714-200-20-99.143q-3.429-12.571-5.143-18.571t-8-18.571-14-18.857-22-12-33.143-5.714h-154.857q-7.429 0-12.571-5.714-4.571-5.143-243.429-282.286-12.571-14.286-33.429-16.286t-27.714 3.143q-31.429 12.571-31.429 56v805.714q0 31.429 21.714 58.571t68.571 27.143h507.429q54.286 0 72.571-30.286t5.714-90.857zM701.143 829.714l-90.286-451.429q2.286 9.714 20 99.143t39.714 200 30.571 152.286z" />
<glyph unicode="&#xf189;" glyph-name="fa-vk" horiz-adv-x="1097" d="M1095.429 653.714q13.143-36.571-85.714-168-13.714-18.286-37.143-48.571-44.571-57.143-51.429-74.857-9.714-23.429 8-46.286 9.714-12 46.286-46.857h0.571l2.286-2.286q80.571-74.857 109.143-126.286 1.714-2.857 3.714-7.143t4-15.143-0.286-19.429-14.286-15.714-33.714-7.143l-146.286-2.286q-13.714-2.857-32 2.857t-29.714 12.571l-11.429 6.857q-17.143 12-40 36.571t-39.143 44.286-34.857 33.143-32.286 8.857q-1.714-0.571-4.571-2t-9.714-8.286-12.286-16.857-9.714-29.714-3.714-44.286q0-8.571-2-15.714t-4.286-10.571l-2.286-2.857q-10.286-10.857-30.286-12.571h-65.714q-40.571-2.286-83.429 9.429t-75.143 30.286-58.857 37.714-40.286 32.857l-14.286 13.714q-5.714 5.714-15.714 17.143t-40.857 52-60.571 86.286-70 120.571-74.571 155.429q-3.429 9.143-3.429 15.429t1.714 9.143l2.286 3.429q8.571 10.857 32.571 10.857l156.571 1.143q6.857-1.143 13.143-3.714t9.143-4.857l2.857-1.714q9.143-6.286 13.714-18.286 11.429-28.571 26.286-59.143t23.429-46.571l9.143-16.571q16.571-34.286 32-59.429t27.714-39.143 23.714-22 19.429-8 15.429 2.857q1.143 0.571 2.857 2.857t6.857 12.571 7.714 26.857 5.429 46.286 0 71.429q-1.143 22.857-5.143 41.714t-8 26.286l-3.429 6.857q-14.286 19.429-48.571 24.571-7.429 1.143 2.857 13.714 9.714 10.857 21.714 17.143 30.286 14.857 136.571 13.714 46.857-0.571 77.143-7.429 11.429-2.857 19.143-7.714t11.714-13.714 6-18.286 2-26-0.571-31.429-1.429-40.286-0.857-47.143q0-6.286-0.571-24t-0.286-27.429 2-23.143 6.571-22.286 12.857-14q4.571-1.143 9.714-2.286t14.857 6.286 21.714 19.714 29.714 38.286 38.857 61.429q34.286 59.429 61.143 128.571 2.286 5.714 5.714 10t6.286 6l2.286 1.714 2.857 1.429t7.429 1.714 11.429 0.286l164.571 1.143q22.286 2.857 36.571-1.429t17.714-9.429z" />
<glyph unicode="&#xf19a;" glyph-name="fa-wordpress" d="M72.571 438.857q0 93.143 38.286 178.857l209.714-574.286q-112 54.286-180 160.571t-68 234.857zM808.571 461.143q0-10.857-1.429-22t-5.714-28.286-6.571-25.143-10-33.714-10-33.143l-43.429-146.286-158.857 472q26.286 1.714 50.286 4.571 10.857 1.143 14.857 10.571t-1.429 17.714-16.286 7.714l-117.143-5.714q-42.857 0.571-115.429 5.714-6.857 0.571-11.714-2.857t-6.571-8.571-0.857-10.571 5.143-9.429 11.143-4.571l45.714-4.571 68.571-187.429-96-288-160 475.429q26.286 1.714 50.286 4.571 10.857 1.143 14.857 10.571t-1.429 17.714-16.286 7.714l-117.143-5.714q-4 0-13.143 0.286t-14.857 0.286q60 91.429 156.857 144.857t210 53.429q84 0 160.286-30.286t136.286-85.143h-5.714q-31.429 0-52.571-23.143t-21.143-54.571q0-6.857 1.143-13.714t2.286-12.286 4.571-13.143 5.143-12 6.857-12.857 7.143-12 8.286-13.714 8-13.143q36-61.143 36-121.143zM519.429 400.571l135.429-369.714q0.571-3.429 2.857-6.286-72-25.143-145.714-25.143-64 0-124 18.286zM897.143 649.714q54.286-99.429 54.286-210.857 0-119.429-59.429-220.286t-159.429-159.143l134.286 387.429q33.714 96.571 33.714 157.714 0 24-3.429 45.143zM512 950.857q104 0 198.857-40.571t163.429-109.143 109.143-163.429 40.571-198.857-40.571-198.857-109.143-163.429-163.429-109.143-198.857-40.571-198.857 40.571-163.429 109.143-109.143 163.429-40.571 198.857 40.571 198.857 109.143 163.429 163.429 109.143 198.857 40.571zM512-49.714q98.857 0 189.429 38.857t156 104.286 104.286 156 38.857 189.429-38.857 189.429-104.286 156-156 104.286-189.429 38.857-189.429-38.857-156-104.286-104.286-156-38.857-189.429 38.857-189.429 104.286-156 156-104.286 189.429-38.857z" />
<glyph unicode="&#xf1b4;" glyph-name="fa-behance" horiz-adv-x="1170" d="M1056 757.143h-292v-70.857h292v70.857zM912 513.714q-51.429 0-83.429-30t-35.429-81.429h233.143q-10.286 111.429-114.286 111.429zM921.143 179.428q36 0 69.714 18.286t43.429 49.714h126.286q-57.143-175.429-244-175.429-122.286 0-194.571 75.429t-72.286 198.286q0 118.857 74.571 197.429t192.286 78.571q78.857 0 137.429-38.857t87.429-102.286 28.857-141.714q0-9.714-1.143-26.857h-376q0-63.429 32.857-98t95.143-34.571zM158.286 208h169.143q117.143 0 117.143 95.429 0 102.857-113.714 102.857h-172.571v-198.286zM158.286 514.857h160.571q44.571 0 70.571 20.857t26 64.857q0 82.286-108.571 82.286h-148.571v-168zM0 805.714h339.429q49.714 0 88.571-8t72.286-27.143 51.429-55.143 18-88q0-103.429-98.286-150.286 65.143-18.286 98.286-65.714t33.143-116.571q0-42.857-14-78t-37.714-59.143-56.286-40.571-69.143-24-76.571-7.429h-349.143v720z" />
<glyph unicode="&#xf1be;" glyph-name="fa-soundcloud" horiz-adv-x="1317" d="M448 166.857l9.143 137.714-9.143 298.857q-0.571 5.714-4.286 9.714t-9.429 4q-5.143 0-9.143-4t-4-9.714l-8-298.857 8-137.714q0.571-5.714 4.286-9.429t8.857-3.714q12.571 0 13.714 13.143zM617.143 183.428l6.286 120.571-6.857 334.857q0 9.143-7.429 13.714-4.571 2.857-9.143 2.857t-9.143-2.857q-7.429-4.571-7.429-13.714l-0.571-3.429-5.714-330.857q0-0.571 6.286-134.857v-0.571q0-5.714 3.429-9.714 5.143-6.286 13.143-6.286 6.286 0 11.429 5.143 5.143 4 5.143 11.429zM20 377.714l11.429-73.143-11.429-72q-1.143-5.143-5.143-5.143t-5.143 5.143l-9.714 72 9.714 73.143q1.143 5.143 5.143 5.143t5.143-5.143zM69.143 422.857l14.857-118.286-14.857-116q-1.143-5.143-5.714-5.143-5.143 0-5.143 5.714l-13.143 115.429 13.143 118.286q0 5.143 5.143 5.143 4.571 0 5.714-5.143zM121.714 444.571l14.286-140-14.286-135.429q0-6.286-6.286-6.286-5.714 0-6.857 6.286l-12 135.429 12 140q1.143 6.857 6.857 6.857 6.286 0 6.286-6.857zM175.429 448.571l13.143-144-13.143-139.429q-1.143-7.429-8-7.429-7.429 0-7.429 7.429l-12 139.429 12 144q0 7.429 7.429 7.429 6.857 0 8-7.429zM229.143 438.286l12-133.714-12-140.571q-1.143-9.143-9.143-9.143-3.429 0-6 2.571t-2.571 6.571l-11.429 140.571 11.429 133.714q0 3.429 2.571 6t6 2.571q8 0 9.143-8.571zM282.857 521.714l12-217.143-12-140.571q0-4-2.857-7.143t-6.857-3.143q-9.143 0-10.286 10.286l-10.286 140.571 10.286 217.143q1.143 10.286 10.286 10.286 4 0 6.857-3.143t2.857-7.143zM336.571 570.857l10.857-267.429-10.857-139.429q0-4.571-3.143-7.714t-7.714-3.143q-10.286 0-11.429 10.857l-9.143 139.429 9.143 267.429q1.143 10.857 11.429 10.857 4.571 0 7.714-3.143t3.143-7.714zM392.571 593.714l10.286-289.143-10.286-138.286q-1.143-12-12.571-12-10.857 0-12 12l-9.143 138.286 9.143 289.143q0 5.143 3.714 8.857t8.286 3.714q5.143 0 8.571-3.714t4-8.857zM616.571 169.714v0 0zM503.429 596l8.571-291.429-8.571-136.571q0-5.714-4.286-10t-10-4.286-9.714 4-4.571 10.286l-8 136.571 8 291.429q0 6.286 4.286 10.286t10 4 10-4 4.286-10.286zM560 585.143l8-281.143-8-134.857q0-6.286-4.571-10.857t-10.857-4.571-10.857 4.571-5.143 10.857l-6.857 134.857 6.857 281.143q0.571 6.857 5.143 11.429t10.857 4.571 10.571-4.571 4.857-11.429zM681.143 304l-8-132q0-7.429-5.143-12.571t-12.571-5.143-12.571 5.143-5.714 12.571l-3.429 65.143-3.429 66.857 6.857 363.429v1.714q1.143 8.571 6.857 13.714 5.143 4 11.429 4 4.571 0 8.571-2.857 8-4.571 9.143-14.857zM1316.571 314.857q0-66.857-47.429-114t-114.286-47.143h-449.143q-7.429 1.143-12.571 6.286t-5.143 12.571v513.714q0 13.143 16 18.857 48.571 19.429 103.429 19.429 111.429 0 193.143-75.143t91.429-184.857q30.286 12.571 62.857 12.571 66.857 0 114.286-47.429t47.429-114.857z" />
<glyph unicode="&#xf1ca;" glyph-name="fa-vine" d="M855.429 478.286v-113.143q-57.714-13.143-113.143-13.143-37.143-77.714-94.571-154.857t-103.714-123.143-73.143-60.857q-45.714-25.714-92.571 1.714-16 9.714-34.571 24.857t-48.571 47.714-58.571 73.429-61.429 105.143-60.286 139.429-52.286 179.714-40.286 222.857h161.714q14.857-124.571 40-227.714t59.714-181.143 69.429-134.571 80-111.429q96.571 96.571 164 232-81.143 41.143-127.429 125.714t-46.286 190.286q0 109.714 59.429 179.714t162.286 70q101.714 0 156-60.286t54.286-170q0-90.857-33.143-163.429-4-0.571-11.143-1.714t-26.286-1.143-36 3.429-35.429 14.571-28.857 29.429q17.714 58.857 17.714 105.143 0 49.714-16.571 75.429t-45.143 25.714q-30.286 0-48.571-28.286t-18.286-80.286q0-106.286 60-167.714t152.571-61.429q35.429 0 69.143 8z" />
<glyph unicode="&#xf202;" glyph-name="fa-lastfm" d="M738.286 548.571q0-3.429 5.714-23.429 5.714-16.571 14.286-28.286t23.429-19.429 25.143-11.429 31.429-9.429q185.714-52 185.714-189.714 0-83.429-60.286-138.571t-145.429-55.143q-33.714 0-63.714 10.571t-52.286 26-44 42.571-36 50-30.571 59.143-24.857 58.857-22.571 60.857-20.286 54.286q-18.286 46.286-35.143 76.286t-42 55.143-59.429 36.571-81.143 11.429q-54.857 0-104.571-31.714t-78.857-82.571-29.143-105.714q0-91.429 60.857-159.714t150.571-68.286q101.143 0 147.429 54.286 32 36 47.429 66.286l48-86.857q-8.571-19.429-25.143-40l0.571-0.571q-74.857-86.857-221.714-86.857-84 0-154 45.143t-108.857 118.571-38.857 156.857q0 60 24.857 117.714t66.286 100.857 98.286 69.429 116.857 26.286q49.714 0 90.857-10.857t70.571-28.571 54.286-45.714 41.429-56.571 33.429-66.857 28.857-71.143 28.571-74.571 31.429-72.571q54.857-114.286 133.143-114.286 46.286 0 79.143 27.714t32.857 73.429q0 24-10.857 41.143t-28.857 26.286-41.429 18-48.286 15.429-50 19.429-46.286 29.714-37.143 46.857-22.286 70q-1.714 9.143-1.714 18.857 0 62.857 50 109.714t113.429 44.571q44.571-1.714 68.857-8.286t51.714-30.571h-0.571q6.857-6.286 13.143-14t14.857-20.571 10.857-15.714l-73.714-56.571q-14.857 28-30.857 40v0.571q-13.143 12-55.429 12-28 0-48-18.857t-20-47.429z" />
<glyph unicode="&#xf231;" glyph-name="fa-pinterest-p" horiz-adv-x="731" d="M0 609.714q0 61.714 21.429 116.286t59.143 95.143 86.857 70.286 105.714 44.571 115.429 14.857q90.286 0 168-38t126.286-110.571 48.571-164q0-54.857-10.857-107.429t-34.286-101.143-57.143-85.429-82.857-58.857-108-22q-38.857 0-77.143 18.286t-54.857 50.286q-5.714-22.286-16-64.286t-13.429-54.286-11.714-40.571-14.857-40.571-18.286-35.714-26.286-44.286-35.429-49.429l-8-2.857-5.143 5.714q-8.571 89.714-8.571 107.429 0 52.571 12.286 118t38 164.286 29.714 116q-18.286 37.143-18.286 96.571 0 47.429 29.714 89.143t75.429 41.714q34.857 0 54.286-23.143t19.429-58.571q0-37.714-25.143-109.143t-25.143-106.857q0-36 25.714-59.714t62.286-23.714q31.429 0 58.286 14.286t44.857 38.857 32 54.286 21.714 63.143 11.429 63.429 3.714 56.857q0 98.857-62.571 154t-163.143 55.143q-114.286 0-190.857-74t-76.571-187.714q0-25.143 7.143-48.571t15.429-37.143 15.429-26 7.143-17.429q0-16-8.571-41.714t-21.143-25.714q-1.143 0-9.714 1.714-29.143 8.571-51.714 32t-34.857 54-18.571 61.714-6.286 60.857z" />
</font>
</defs>
</svg>
