
<svg xmlns="http://www.w3.org/2000/svg" viewBox="0 0 127 127"><g fill="#4489C4"><path d="M26.67 2.76c2.51-.01 5.02.03 7.52.03.07 1.36.09 2.72.06 4.07 20.48-.14 40.96-.07 61.44-.03 0-1.35.01-2.7.06-4.05 2.48 0 4.97-.02 7.45-.01.09 5.2.08 10.4.02 15.59-2.48.04-4.97.02-7.45.02-.02-.88-.07-2.65-.1-3.53-9.07-.17-18.19-.55-27.25.22.2 4.89.21 9.79-.01 14.68 10.01.37 20.1-.67 30.05.73 7.83 1.23 15.17 5.36 20.3 11.4-.14-3.41-.14-6.83-.07-10.24 2.55-.03 5.1-.04 7.65-.01.24 7.93.23 15.86.01 23.8-2.44.05-4.88.2-7.31-.06-1.71-1.56-2.37-3.92-3.7-5.78-5.17-7.47-14.12-12.47-23.29-12.13-19.04.05-38.07.02-57.1.02-13.56.1-26.03 11.86-26.53 25.47-1.26 15.09 12.4 29.38 27.55 28.66 8.27-.01 16.55-.12 24.82.07.03-15.63-.06-31.27.05-46.9 2.64-.02 5.28.01 7.92.09-.07 23.94-.29 47.9.11 71.84 4.79-.12 9.59-.11 14.39 0 .01 2.5 0 5-.02 7.5-12.34.02-24.7.2-37.04-.1.02-2.44.02-4.88-.03-7.31 4.88-.27 9.76-.2 14.64-.08-.03-5.83-.05-11.65.03-17.47-7.95.11-15.91.05-23.86.07-9.53 0-19.24-3.44-25.98-10.32C4.59 82.73 1.25 73.84.52 65.02c.28-7.56 2.71-15.09 7.3-21.15 6.38-8.93 17.36-13.69 28.14-14.06 8.29-.06 16.59-.04 24.88.03-.07-5.01-.07-10.02-.02-15.04-8.84-.22-17.7-.2-26.55 0-.02.89-.07 2.68-.09 3.58-2.51-.01-5.01.02-7.52-.01-.12-5.2-.14-10.41.01-15.61z"/><path d="M90.78 62.63c7.41-.33 14.83-.19 22.25-.17 7.81-.23 14.29 8.62 11.35 15.94-2.84 7.44-9.03 13.3-15.94 17.04-10.11 5.17-21.74 3.73-32.68 3.82.01-2.54-.02-5.07 0-7.6 5.76-.16 11.53-.04 17.3-.06 9.42.37 18.24-5.54 23.08-13.35 1.7-2.44 1.56-6.64-1.55-7.82-7.85-.7-15.78.27-23.64-.52-.09-2.43-.13-4.86-.17-7.28z"/></g></svg>
