<svg xmlns="http://www.w3.org/2000/svg" width="100%" height="100px" viewBox="0 0 1039 990" version="1.1"><style>.style0{opacity:1;fill:#397db1;}</style><g><path d=" M 105.1 60.1 C 122.4 59.9 139.6 59.9 156.9 60.1 C 157.3 69.7 156.7 79.3 157.1 88.9 C 405 89 653 89 900.9 88.9 C 901.3 79.3 900.7 69.7 901.1 60.1 C 918.4 59.9 935.6 59.9 952.9 60.1 C 953.1 95 953.1 130 952.9 164.9 C 935.6 165.1 918.4 165.1 901.1 164.9 C 900.7 156.3 901.3 147.7 900.9 139.1 C 785.6 138.9 670.4 138.9 555.1 139.1 C 554.9 175.4 554.9 211.6 555.1 247.9 C 612.4 248.1 669.7 248 727 248 C 792.8 248.8 857.2 278.9 900.9 328 C 901.2 305 900.8 282.1 901.1 259.1 C 918.4 258.9 935.6 258.9 952.9 259.1 C 953.1 313.7 953.1 368.3 952.9 422.9 C 935 423.1 917.1 423.1 899.2 422.9 C 891.9 404.1 882.4 386 869.9 370.1 C 858.2 357.7 846.6 345.2 833 334.9 C 816.8 323.1 798.6 314.1 779.9 307.1 C 759.3 298.9 736.8 298.3 715 298 C 661.7 298.1 608.4 297.9 555.1 298.1 C 554.9 423.7 555 549.3 555.1 674.9 C 598.4 675.1 641.7 674.9 685 675 C 711.9 674.8 739.1 676.3 765.5 670.5 C 785.5 664.8 804.6 656.1 822.4 645.3 C 844.3 631.2 863.2 612.3 877.8 590.8 C 884.3 579.8 892.5 568.4 891.9 555 C 892 537.5 876.5 522.1 859 522.1 C 809.4 521.8 759.7 522.2 710.1 521.9 C 709.9 505.3 709.9 488.7 710.1 472.1 C 760.7 471.9 811.4 472.1 862 472 C 896.3 472.3 928.7 496.1 939.4 528.6 C 948 552.3 944 579.1 931.9 600.8 C 917.9 626.1 899.6 648.9 877.6 667.6 C 834 705.1 776.5 726.2 719 725 C 664.4 725.1 609.7 724.9 555.1 725.1 C 554.9 766.4 554.9 807.6 555.1 848.9 C 588.4 849.2 621.6 848.8 654.9 849.1 C 655 865.7 655 882.3 654.9 898.9 C 570 899.1 485 899.1 400.1 898.9 C 400 882.3 400 865.7 400.1 849.1 C 434.4 848.8 468.6 849.2 502.9 848.9 C 503.1 612.3 503.1 375.7 502.9 139.1 C 387.6 138.9 272.4 138.9 157.1 139.1 C 156.7 147.7 157.3 156.3 156.9 164.9 C 139.6 165.1 122.4 165.1 105.1 164.9 C 104.9 130 105 95 105.1 60.1 Z" class="style0"/><path d=" M 154 291 C 191.9 264.4 237.7 249.2 284 248 C 341 248.1 397.9 247.9 454.9 248.1 C 455.1 264.7 455.1 281.3 454.9 297.9 C 399.3 298.2 343.6 297.9 288 298.1 C 270.5 299 252.6 299.8 236.1 306.1 C 217.1 312.8 198.8 321.8 182.2 333.2 C 165.4 345.9 150.4 361 138 378 C 124.7 398.2 114.1 420.5 107.9 443.9 C 102.7 472.2 102.6 501.6 108.1 529.9 C 118.4 566.6 137.5 601.4 166.4 626.6 C 185.9 645.2 210.3 657.5 235.4 666.7 C 252.1 673.2 270.2 674 288 674.9 C 343.6 675.1 399.3 674.8 454.9 675.1 C 455.1 691.7 455.1 708.3 454.9 724.9 C 398.9 725.1 343 724.9 287 725 C 219 724.5 152.1 692.6 108.4 640.5 C 64.7 589.4 44.5 519 54.5 452.4 C 63.4 387.9 100.4 328 154 291 Z" class="style0"/></g></svg>